<?xml version="1.0" encoding="utf-8"?>
<!-- Generated by IcoMoon.io -->
<!DOCTYPE svg PUBLIC "-//W3C//DTD SVG 1.1//EN" "http://www.w3.org/Graphics/SVG/1.1/DTD/svg11.dtd">
<svg version="1.1" xmlns="http://www.w3.org/2000/svg" xmlns:xlink="http://www.w3.org/1999/xlink" width="576" height="1024" viewBox="0 0 576 1024">
<g id="icomoon-ignore">
</g>
<path fill="#7C8589" d="M276.139 669.1l-268.095-271.677c-4.973-5.054-8.044-11.996-8.044-19.652s3.070-14.596 8.049-19.656c4.928-5.024 11.791-8.141 19.382-8.141s14.456 3.117 19.382 8.14l241.207 244.483 241.202-244.479c4.931-5.023 11.79-8.135 19.376-8.135s14.448 3.112 19.372 8.132c4.968 5.056 8.030 11.99 8.030 19.637s-3.064 14.581-8.030 19.637l-268.073 271.709c-3.039 3.045-7.24 4.928-11.879 4.928s-8.841-1.883-11.879-4.928z"></path>
</svg>
