<svg xmlns="http://www.w3.org/2000/svg" viewBox="-1321.686 -991 194.565 60">
  <defs>
    <style>
      .cls-1 {
        fill: #ff713e;
      }

      .cls-2 {
        fill: #3c3c3b;
      }
    </style>
  </defs>
  <g id="group-1" transform="translate(-1321.726 -991)">
    <g id="group" transform="translate(0.039)">
      <path id="path" class="cls-1" d="M31.48,42.45a1.254,1.254,0,0,0-1.25,1.25A13.837,13.837,0,1,1,6.255,34.3,56.421,56.421,0,0,0,9.58,38.9a8.342,8.342,0,1,0,15.15,4.875,1.249,1.249,0,0,0-1.225-1.25h0a1.249,1.249,0,0,0-1.25,1.225,5.772,5.772,0,0,1-1.725,4.1,5.859,5.859,0,0,1-9.275-6.975c1.275,1.45,2.7,2.95,4.275,4.45a1.282,1.282,0,0,0,.85.35,1.235,1.235,0,0,0,.85-.35C33.155,30.05,32.755,17.35,32.7,16.3a16.325,16.325,0,0,0-32.65,0C0,17.025-.2,23.275,4.9,32.075l-.05.05A16.334,16.334,0,1,0,32.73,43.675,1.265,1.265,0,0,0,31.48,42.45ZM2.53,16.425v-.1a13.85,13.85,0,0,1,27.7.025v.075a22.632,22.632,0,0,1-1.525,7.95C26.03,31.975,20.68,38.425,16.38,42.7c-7.425-7.375-10.8-14-12.325-18.325A22.632,22.632,0,0,1,2.53,16.425Z" transform="translate(-0.039)"/>
      <path id="path-2" data-name="path" class="cls-1" d="M49.967,106.185a1.241,1.241,0,0,0-2.25-1.05,5.858,5.858,0,0,1-10.6.025,1.241,1.241,0,0,0-2.25,1.05,8.347,8.347,0,0,0,15.1-.025Z" transform="translate(-26.077 -78.31)"/>
    </g>
    <g id="group-2" data-name="group" transform="translate(66.305 12.35)">
      <path id="path-3" data-name="path" class="cls-2" d="M275.175,60.35a4.343,4.343,0,0,1-1.75,1.675,5.661,5.661,0,0,1-2.575.575h-4.175a.4.4,0,0,1-.325-.15.44.44,0,0,1-.15-.325V50.675a.4.4,0,0,1,.15-.325.44.44,0,0,1,.325-.15h4.05a5.955,5.955,0,0,1,2.625.575,4.462,4.462,0,0,1,1.8,1.675,5.223,5.223,0,0,1,.675,2.55c0,.35.025.825.025,1.4s0,1.05-.025,1.4A5.214,5.214,0,0,1,275.175,60.35Zm-7.3-8.575v9.2h2.875a3.15,3.15,0,0,0,2.55-.925,3.691,3.691,0,0,0,.825-2.375c0-.35.025-.8.025-1.3,0-.525,0-.95-.025-1.3a3.639,3.639,0,0,0-.875-2.375,3.3,3.3,0,0,0-2.6-.925h-2.775Z" transform="translate(-265.925 -50)"/>
      <path id="path-4" data-name="path" class="cls-2" d="M319.875,61h5.95a.4.4,0,0,1,.325.15.44.44,0,0,1,.15.325v.65a.4.4,0,0,1-.15.325.44.44,0,0,1-.325.15h-7.15a.4.4,0,0,1-.325-.15.44.44,0,0,1-.15-.325V50.675a.4.4,0,0,1,.15-.325.44.44,0,0,1,.325-.15H325.7a.4.4,0,0,1,.325.15.44.44,0,0,1,.15.325v.65a.4.4,0,0,1-.15.325.44.44,0,0,1-.325.15h-5.8v3.75h5.425a.4.4,0,0,1,.325.15.44.44,0,0,1,.15.325v.65a.4.4,0,0,1-.15.325.44.44,0,0,1-.325.15H319.9V61Z" transform="translate(-304.925 -50)"/>
      <path id="path-5" data-name="path" class="cls-2" d="M391.55,62.45a3.146,3.146,0,0,1-.325-.4l-5.75-8.65v8.725a.4.4,0,0,1-.15.325.44.44,0,0,1-.325.15h-.725a.4.4,0,0,1-.325-.15.44.44,0,0,1-.15-.325V50.675a.4.4,0,0,1,.15-.325.44.44,0,0,1,.325-.15h.625a.613.613,0,0,1,.4.15,1.868,1.868,0,0,1,.325.4l5.75,8.65V50.675a.4.4,0,0,1,.15-.325.44.44,0,0,1,.325-.15h.725a.4.4,0,0,1,.325.15.44.44,0,0,1,.15.325v11.45a.4.4,0,0,1-.15.325.44.44,0,0,1-.325.15h-.625A.645.645,0,0,1,391.55,62.45Z" transform="translate(-354.125 -50)"/>
      <path id="path-6" data-name="path" class="cls-2" d="M433.775,59.7l-.925,2.35a.649.649,0,0,1-.7.45h-.65a.43.43,0,0,1-.4-.4.663.663,0,0,1,.075-.25l4.35-11.175a.794.794,0,0,1,.8-.575H437.4a.824.824,0,0,1,.8.575l4.325,11.175a.662.662,0,0,1,.075.25.43.43,0,0,1-.4.4h-.65a.687.687,0,0,1-.7-.45l-.925-2.35Zm5.525-1.575L436.85,51.8l-2.45,6.325Z" transform="translate(-389.6 -49.925)"/>
      <path id="path-7" data-name="path" class="cls-2" d="M487.1,50.25a.44.44,0,0,1,.15.325v.65a.4.4,0,0,1-.15.325.44.44,0,0,1-.325.15H483.45V62.025a.4.4,0,0,1-.15.325.44.44,0,0,1-.325.15h-.725a.4.4,0,0,1-.325-.15.44.44,0,0,1-.15-.325V51.7h-3.3a.4.4,0,0,1-.325-.15.44.44,0,0,1-.15-.325v-.65a.4.4,0,0,1,.15-.325.44.44,0,0,1,.325-.15h8.3A.44.44,0,0,1,487.1,50.25Z" transform="translate(-424.775 -49.925)"/>
      <path id="path-8" data-name="path" class="cls-2" d="M526.05,62.45a.44.44,0,0,1-.15-.325V50.675a.4.4,0,0,1,.15-.325.44.44,0,0,1,.325-.15h.725a.4.4,0,0,1,.325.15.44.44,0,0,1,.15.325v11.45a.4.4,0,0,1-.15.325.44.44,0,0,1-.325.15h-.725A.5.5,0,0,1,526.05,62.45Z" transform="translate(-460.7 -50)"/>
      <path id="path-9" data-name="path" class="cls-2" d="M553.45,50.05a4.274,4.274,0,0,1,1.675,1.725,5.605,5.605,0,0,1,.6,2.425c.025.7.025,1.225.025,1.575s0,.875-.025,1.575a5.532,5.532,0,0,1-.625,2.425,4.274,4.274,0,0,1-1.675,1.725,5.525,5.525,0,0,1-5.2,0,4.441,4.441,0,0,1-1.675-1.725,5.292,5.292,0,0,1-.625-2.425c0-.35-.025-.875-.025-1.575s0-1.225.025-1.575a5.517,5.517,0,0,1,.6-2.425A4.275,4.275,0,0,1,548.2,50.05a5.078,5.078,0,0,1,2.6-.65A5.137,5.137,0,0,1,553.45,50.05Zm-4.875,1.775a3.481,3.481,0,0,0-.925,2.45c0,.35-.025.85-.025,1.5s0,1.125.025,1.5a3.375,3.375,0,0,0,.925,2.45,3.549,3.549,0,0,0,4.55,0,3.482,3.482,0,0,0,.925-2.45c.025-.7.025-1.2.025-1.5,0-.275,0-.775-.025-1.5a3.376,3.376,0,0,0-.925-2.45,3.549,3.549,0,0,0-4.55,0Z" transform="translate(-475.7 -49.4)"/>
      <path id="path-10" data-name="path" class="cls-2" d="M606.55,62.45a3.134,3.134,0,0,1-.325-.4l-5.75-8.65v8.725a.4.4,0,0,1-.15.325.44.44,0,0,1-.325.15h-.725a.4.4,0,0,1-.325-.15.44.44,0,0,1-.15-.325V50.675a.4.4,0,0,1,.15-.325.44.44,0,0,1,.325-.15h.625a.613.613,0,0,1,.4.15,1.868,1.868,0,0,1,.325.4l5.75,8.65V50.675a.4.4,0,0,1,.15-.325.44.44,0,0,1,.325-.15h.725a.4.4,0,0,1,.325.15.44.44,0,0,1,.15.325v11.45a.4.4,0,0,1-.15.325.44.44,0,0,1-.325.15h-.625A.784.784,0,0,1,606.55,62.45Z" transform="translate(-515.375 -50)"/>
      <path id="path-11" data-name="path" class="cls-2" d="M648.775,59.7l-.925,2.35a.649.649,0,0,1-.7.45h-.65a.43.43,0,0,1-.4-.4.663.663,0,0,1,.075-.25l4.35-11.175a.794.794,0,0,1,.8-.575H652.4a.824.824,0,0,1,.8.575l4.325,11.175a.663.663,0,0,1,.075.25.43.43,0,0,1-.4.4h-.65a.687.687,0,0,1-.7-.45l-.925-2.35Zm5.525-1.575L651.85,51.8l-2.45,6.325Z" transform="translate(-550.85 -49.925)"/>
      <path id="path-12" data-name="path" class="cls-2" d="M710.6,61.125a.44.44,0,0,1,.15.325v.65a.4.4,0,0,1-.15.325.44.44,0,0,1-.325.15h-7.2a.4.4,0,0,1-.325-.15.44.44,0,0,1-.15-.325V50.675a.4.4,0,0,1,.15-.325.44.44,0,0,1,.325-.15h.725a.4.4,0,0,1,.325.15.44.44,0,0,1,.15.325V61h6A.475.475,0,0,1,710.6,61.125Z" transform="translate(-593.225 -50)"/>
      <path id="path-13" data-name="path" class="cls-2" d="M747.575,61h5.95a.4.4,0,0,1,.325.15.44.44,0,0,1,.15.325v.65a.4.4,0,0,1-.15.325.44.44,0,0,1-.325.15h-7.15a.4.4,0,0,1-.325-.15.44.44,0,0,1-.15-.325V50.675a.4.4,0,0,1,.15-.325.44.44,0,0,1,.325-.15H753.4a.4.4,0,0,1,.325.15.441.441,0,0,1,.15.325v.65a.4.4,0,0,1-.15.325.44.44,0,0,1-.325.15h-5.8v3.75h5.425a.4.4,0,0,1,.325.15.44.44,0,0,1,.15.325v.65a.4.4,0,0,1-.15.325.44.44,0,0,1-.325.15H747.6V61Z" transform="translate(-625.7 -50)"/>
      <path id="path-14" data-name="path" class="cls-2" d="M274.1,144.825a.44.44,0,0,1,.15.325v1.875a.4.4,0,0,1-.15.325.44.44,0,0,1-.325.15h-8.2a.4.4,0,0,1-.325-.15.44.44,0,0,1-.15-.325v-11.45a.4.4,0,0,1,.15-.325.44.44,0,0,1,.325-.15H267.9a.4.4,0,0,1,.325.15.44.44,0,0,1,.15.325v9.075h5.4A.523.523,0,0,1,274.1,144.825Z" transform="translate(-265.1 -113.675)"/>
      <path id="path-15" data-name="path" class="cls-2" d="M317.125,135.05A4.491,4.491,0,0,1,319,136.775a5.09,5.09,0,0,1,.725,2.425c.025.325.025.85.025,1.6,0,.725,0,1.25-.025,1.55a5.292,5.292,0,0,1-.725,2.425,4.645,4.645,0,0,1-1.875,1.725,6.2,6.2,0,0,1-2.9.65,6.133,6.133,0,0,1-2.9-.65,4.49,4.49,0,0,1-1.875-1.725,5.089,5.089,0,0,1-.725-2.425c-.025-.65-.025-1.15-.025-1.55s0-.925.025-1.6a5.29,5.29,0,0,1,.725-2.425,4.645,4.645,0,0,1,1.875-1.725,6.2,6.2,0,0,1,2.9-.65A6.607,6.607,0,0,1,317.125,135.05Zm-1.3,2.75a2.6,2.6,0,0,0-3.2,0,2.311,2.311,0,0,0-.65,1.5c-.025.4-.05.875-.05,1.475,0,.575.025,1.075.05,1.5a2.311,2.311,0,0,0,.65,1.5,2.6,2.6,0,0,0,3.2,0,2.442,2.442,0,0,0,.65-1.5c.025-.425.05-.925.05-1.5,0-.6-.025-1.075-.05-1.475A2.442,2.442,0,0,0,315.825,137.8Z" transform="translate(-297.8 -113.15)"/>
      <path id="path-16" data-name="path" class="cls-2" d="M366.55,143.925a2.163,2.163,0,0,0,1.65.575,2.4,2.4,0,0,0,1.55-.4,2.1,2.1,0,0,0,.675-1,1.122,1.122,0,0,1,.225-.4.551.551,0,0,1,.4-.1h2.325a.43.43,0,0,1,.4.4,3.767,3.767,0,0,1-.75,2.2,4.859,4.859,0,0,1-2,1.575,6.419,6.419,0,0,1-2.775.575,6.172,6.172,0,0,1-2.875-.65,4.716,4.716,0,0,1-1.9-1.725,5.031,5.031,0,0,1-.75-2.425c-.025-.575-.025-1.025-.025-1.4,0-.425,0-1.025.025-1.75a4.828,4.828,0,0,1,.725-2.425,4.716,4.716,0,0,1,1.9-1.725,6.172,6.172,0,0,1,2.875-.65,6.635,6.635,0,0,1,2.775.575,5.3,5.3,0,0,1,2,1.575,3.55,3.55,0,0,1,.75,2.2.43.43,0,0,1-.4.4h-2.325a.551.551,0,0,1-.4-.1,1.122,1.122,0,0,1-.225-.4,2.1,2.1,0,0,0-.675-1,2.352,2.352,0,0,0-1.55-.4,2.163,2.163,0,0,0-1.65.575,2.4,2.4,0,0,0-.6,1.5c-.025.4-.025.9-.025,1.5,0,.575,0,1.075.025,1.5A2.568,2.568,0,0,0,366.55,143.925Z" transform="translate(-338.3 -113.3)"/>
      <path id="path-17" data-name="path" class="cls-2" d="M424.475,146.85a.759.759,0,0,1,.075.275.43.43,0,0,1-.4.4h-2.225a.889.889,0,0,1-.475-.125,1.176,1.176,0,0,1-.225-.3l-.5-1.475h-4.7l-.5,1.475a.446.446,0,0,1-.225.3.889.889,0,0,1-.475.125H412.6a.43.43,0,0,1-.4-.4.909.909,0,0,1,.075-.275l3.85-11.15a.965.965,0,0,1,.275-.425.825.825,0,0,1,.525-.175H419.8a.743.743,0,0,1,.525.175.842.842,0,0,1,.275.425Zm-4.675-4-1.425-4.25-1.425,4.25Z" transform="translate(-375.425 -113.675)"/>
      <path id="path-18" data-name="path" class="cls-2" d="M472.325,135.25a.44.44,0,0,1,.15.325v1.875a.4.4,0,0,1-.15.325.558.558,0,0,1-.325.15h-3.125V147a.4.4,0,0,1-.15.325.44.44,0,0,1-.325.15h-2.325a.4.4,0,0,1-.325-.15.44.44,0,0,1-.15-.325v-9.075h-3.125a.4.4,0,0,1-.325-.15.44.44,0,0,1-.15-.325v-1.875a.4.4,0,0,1,.15-.325.44.44,0,0,1,.325-.15H472A.775.775,0,0,1,472.325,135.25Z" transform="translate(-412.775 -113.675)"/>
      <path id="path-19" data-name="path" class="cls-2" d="M513.55,147.45a.44.44,0,0,1-.15-.325v-11.45a.4.4,0,0,1,.15-.325.44.44,0,0,1,.325-.15H516.2a.4.4,0,0,1,.325.15.44.44,0,0,1,.15.325v11.45a.4.4,0,0,1-.15.325.44.44,0,0,1-.325.15h-2.325A.44.44,0,0,1,513.55,147.45Z" transform="translate(-451.325 -113.75)"/>
      <path id="path-20" data-name="path" class="cls-2" d="M542.875,144.675h5.6a.4.4,0,0,1,.325.15.44.44,0,0,1,.15.325v1.875a.4.4,0,0,1-.15.325.44.44,0,0,1-.325.15h-8.4a.4.4,0,0,1-.325-.15.44.44,0,0,1-.15-.325v-11.45a.4.4,0,0,1,.15-.325.44.44,0,0,1,.325-.15h8.25a.4.4,0,0,1,.325.15.44.44,0,0,1,.15.325v1.875a.4.4,0,0,1-.15.325.44.44,0,0,1-.325.15h-5.45v1.925h5.075a.4.4,0,0,1,.325.15.558.558,0,0,1,.15.325V142.2a.4.4,0,0,1-.15.325.44.44,0,0,1-.325.15h-5.075Z" transform="translate(-470.975 -113.675)"/>
      <path id="path-21" data-name="path" class="cls-2" d="M614.05,138.25a.347.347,0,0,1-.25.125h-2.325a1.566,1.566,0,0,1-.4-.05,1.927,1.927,0,0,1-.325-.225c-.025-.025-.1-.1-.225-.25a2.075,2.075,0,0,0-.6-.375,2.854,2.854,0,0,0-.975-.15,3.536,3.536,0,0,0-1.25.2.7.7,0,0,0-.475.7.627.627,0,0,0,.3.55,3.853,3.853,0,0,0,.925.375c.425.125,1.15.275,2.2.475a6.238,6.238,0,0,1,2.95,1.275,3.536,3.536,0,0,1,.25,4.525,4.7,4.7,0,0,1-1.95,1.35,7.7,7.7,0,0,1-2.825.475,7.128,7.128,0,0,1-2.775-.525,5.25,5.25,0,0,1-1.95-1.375,2.923,2.923,0,0,1-.75-1.75.4.4,0,0,1,.125-.275.347.347,0,0,1,.25-.125H606.3a.985.985,0,0,1,.675.25c.025.025.125.15.275.3a1.694,1.694,0,0,0,.7.45,2.977,2.977,0,0,0,1.1.2c1.475,0,2.2-.325,2.2-.95a.578.578,0,0,0-.3-.5,3.325,3.325,0,0,0-.875-.35c-.375-.1-.975-.225-1.8-.4l-.8-.15a4.894,4.894,0,0,1-2.65-1.3,3.379,3.379,0,0,1-.85-2.425,3.147,3.147,0,0,1,.625-1.9,4.486,4.486,0,0,1,1.75-1.4,6.229,6.229,0,0,1,2.625-.525,6.1,6.1,0,0,1,2.625.55,4.9,4.9,0,0,1,1.875,1.35,2.781,2.781,0,0,1,.725,1.6A.667.667,0,0,1,614.05,138.25Z" transform="translate(-518.975 -113.225)"/>
      <path id="path-22" data-name="path" class="cls-2" d="M657.65,147.45a.44.44,0,0,1-.15-.325v-11.45a.4.4,0,0,1,.15-.325.44.44,0,0,1,.325-.15H660.3a.4.4,0,0,1,.325.15.44.44,0,0,1,.15.325v11.45a.4.4,0,0,1-.15.325.44.44,0,0,1-.325.15h-2.325A.44.44,0,0,1,657.65,147.45Z" transform="translate(-559.4 -113.75)"/>
      <path id="path-23" data-name="path" class="cls-2" d="M690.525,135.25a.44.44,0,0,1,.15.325v1.875a.4.4,0,0,1-.15.325.558.558,0,0,1-.325.15h-3.125V147a.4.4,0,0,1-.15.325.44.44,0,0,1-.325.15h-2.325a.4.4,0,0,1-.325-.15.44.44,0,0,1-.15-.325v-9.075h-3.125a.4.4,0,0,1-.325-.15.44.44,0,0,1-.15-.325v-1.875a.4.4,0,0,1,.15-.325.44.44,0,0,1,.325-.15H690.2A.775.775,0,0,1,690.525,135.25Z" transform="translate(-576.425 -113.675)"/>
      <path id="path-24" data-name="path" class="cls-2" d="M734.975,144.675h5.6a.4.4,0,0,1,.325.15.44.44,0,0,1,.15.325v1.875a.4.4,0,0,1-.15.325.44.44,0,0,1-.325.15h-8.4a.4.4,0,0,1-.325-.15.44.44,0,0,1-.15-.325v-11.45a.4.4,0,0,1,.15-.325.44.44,0,0,1,.325-.15h8.25a.4.4,0,0,1,.325.15.44.44,0,0,1,.15.325v1.875a.4.4,0,0,1-.15.325.44.44,0,0,1-.325.15h-5.45v1.925h5.05a.4.4,0,0,1,.325.15.558.558,0,0,1,.15.325V142.2a.4.4,0,0,1-.15.325.44.44,0,0,1-.325.15H734.95v2Z" transform="translate(-615.05 -113.675)"/>
    </g>
  </g>
</svg>
