<svg xmlns="http://www.w3.org/2000/svg" viewBox="-6177.936 3687.427 190.422 57.998">
  <defs>
    <style>
      .cls-1 {
        fill: #fff;
      }
    </style>
  </defs>
  <g id="group-27" transform="translate(-6218 3677)">
    <path id="path" class="cls-1" d="M30.81,41.033a1.219,1.219,0,0,0-1.223,1.208,13.3,13.3,0,0,1-3.964,9.473,13.677,13.677,0,0,1-19.158,0,13.26,13.26,0,0,1-.343-18.559A54.562,54.562,0,0,0,9.376,37.6a8,8,0,0,0,.881,10.367,8.224,8.224,0,0,0,11.549,0,7.967,7.967,0,0,0,2.4-5.655A1.214,1.214,0,0,0,23,41.106h0a1.215,1.215,0,0,0-1.223,1.184,5.546,5.546,0,0,1-1.688,3.963,5.826,5.826,0,0,1-8.123,0,5.6,5.6,0,0,1-.954-6.742c1.248,1.4,2.643,2.852,4.184,4.3a1.263,1.263,0,0,0,.832.338,1.216,1.216,0,0,0,.832-.338C32.449,29.047,32.058,16.771,32.009,15.756A15.9,15.9,0,0,0,16.032,0,15.879,15.879,0,0,0,.054,15.756C.005,16.457-.19,22.5,4.8,31l-.049.048a15.658,15.658,0,0,0,0,22.329,16.15,16.15,0,0,0,22.608,0,15.584,15.584,0,0,0,4.673-11.165A1.231,1.231,0,0,0,30.81,41.033ZM2.477,15.877v-.1a13.556,13.556,0,0,1,27.11.024v.072a21.632,21.632,0,0,1-1.493,7.685c-2.618,7.346-7.854,13.581-12.063,17.713C8.765,34.146,5.462,27.742,3.969,23.561A21.632,21.632,0,0,1,2.477,15.877Z" transform="translate(40.025 10.427)"/>
    <path id="path-2" data-name="path" class="cls-1" d="M49.643,106.126a1.185,1.185,0,0,0-.587-1.595,1.2,1.2,0,0,0-1.615.58,5.764,5.764,0,0,1-10.374.024,1.233,1.233,0,0,0-1.615-.58,1.2,1.2,0,0,0-.587,1.595,8.213,8.213,0,0,0,14.778-.024Z" transform="translate(13.802 -68.754)"/>
    <path id="path-3" data-name="path" class="cls-1" d="M274.984,60.011a4.228,4.228,0,0,1-1.713,1.619,5.6,5.6,0,0,1-2.52.556h-4.086a.4.4,0,0,1-.318-.145.423.423,0,0,1-.147-.314V50.659a.388.388,0,0,1,.147-.314.433.433,0,0,1,.318-.145h3.964a5.888,5.888,0,0,1,2.569.556,4.345,4.345,0,0,1,1.762,1.619,5,5,0,0,1,.661,2.465c0,.338.024.8.024,1.353s0,1.015-.024,1.353A4.99,4.99,0,0,1,274.984,60.011Zm-7.145-8.289v8.893h2.814a3.1,3.1,0,0,0,2.5-.894,3.54,3.54,0,0,0,.807-2.3c0-.338.024-.773.024-1.257,0-.507,0-.918-.024-1.257a3.492,3.492,0,0,0-.856-2.3,3.251,3.251,0,0,0-2.545-.894Z" transform="translate(-161.012 -27.642)"/>
    <path id="path-4" data-name="path" class="cls-1" d="M319.839,60.64h5.823a.4.4,0,0,1,.318.145.423.423,0,0,1,.147.314v.628a.388.388,0,0,1-.147.314.433.433,0,0,1-.318.145h-7a.4.4,0,0,1-.318-.145.423.423,0,0,1-.147-.314V50.659a.388.388,0,0,1,.147-.314.433.433,0,0,1,.318-.145h6.875a.4.4,0,0,1,.318.145.423.423,0,0,1,.147.314v.628a.388.388,0,0,1-.147.314.433.433,0,0,1-.318.145h-5.677v3.625h5.31a.4.4,0,0,1,.318.145.423.423,0,0,1,.147.314v.628a.388.388,0,0,1-.147.314.433.433,0,0,1-.318.145h-5.31V60.64Z" transform="translate(-200.289 -27.642)"/>
    <path id="path-5" data-name="path" class="cls-1" d="M391.385,62.041a3.046,3.046,0,0,1-.318-.387l-5.628-8.361v8.434a.388.388,0,0,1-.147.314.433.433,0,0,1-.318.145h-.71a.4.4,0,0,1-.318-.145.423.423,0,0,1-.147-.314V50.659a.388.388,0,0,1,.147-.314.433.433,0,0,1,.318-.145h.612a.6.6,0,0,1,.391.145,1.81,1.81,0,0,1,.318.387l5.628,8.361V50.659a.388.388,0,0,1,.147-.314.433.433,0,0,1,.318-.145h.71a.4.4,0,0,1,.318.145.423.423,0,0,1,.147.314V61.727a.388.388,0,0,1-.147.314.433.433,0,0,1-.318.145h-.612A.635.635,0,0,1,391.385,62.041Z" transform="translate(-249.838 -27.642)"/>
    <path id="path-6" data-name="path" class="cls-1" d="M433.718,59.38l-.905,2.272a.635.635,0,0,1-.685.435h-.636a.4.4,0,0,1-.269-.121.386.386,0,0,1-.122-.266.635.635,0,0,1,.073-.242l4.257-10.8a.777.777,0,0,1,.783-.556h1.052a.805.805,0,0,1,.783.556l4.233,10.8a.634.634,0,0,1,.073.242.386.386,0,0,1-.122.266.4.4,0,0,1-.269.121h-.636a.673.673,0,0,1-.685-.435l-.905-2.272Zm5.407-1.522-2.4-6.114-2.4,6.114Z" transform="translate(-285.565 -27.566)"/>
    <path id="path-7" data-name="path" class="cls-1" d="M486.906,50.245a.423.423,0,0,1,.147.314v.628a.388.388,0,0,1-.147.314.433.433,0,0,1-.318.145h-3.254v9.98a.388.388,0,0,1-.147.314.433.433,0,0,1-.318.145h-.71a.4.4,0,0,1-.318-.145.423.423,0,0,1-.147-.314v-9.98h-3.23a.4.4,0,0,1-.318-.145.423.423,0,0,1-.147-.314v-.628a.388.388,0,0,1,.147-.314.433.433,0,0,1,.318-.145h8.123A.433.433,0,0,1,486.906,50.245Z" transform="translate(-320.99 -27.566)"/>
    <path id="path-8" data-name="path" class="cls-1" d="M526.047,62.041a.423.423,0,0,1-.147-.314V50.659a.388.388,0,0,1,.147-.314.433.433,0,0,1,.318-.145h.71a.4.4,0,0,1,.318.145.423.423,0,0,1,.147.314V61.727a.388.388,0,0,1-.147.314.433.433,0,0,1-.318.145h-.71A.488.488,0,0,1,526.047,62.041Z" transform="translate(-357.17 -27.642)"/>
    <path id="path-9" data-name="path" class="cls-1" d="M553.289,50.028a4.155,4.155,0,0,1,1.639,1.667,5.364,5.364,0,0,1,.587,2.344c.025.677.025,1.184.025,1.522s0,.846-.025,1.522a5.3,5.3,0,0,1-.612,2.344,4.156,4.156,0,0,1-1.639,1.667,5.467,5.467,0,0,1-5.089,0,4.318,4.318,0,0,1-1.639-1.667,5.067,5.067,0,0,1-.612-2.344c0-.338-.024-.846-.024-1.522s0-1.184.024-1.522a5.28,5.28,0,0,1,.587-2.344,4.155,4.155,0,0,1,1.639-1.667A5.018,5.018,0,0,1,550.7,49.4,5.077,5.077,0,0,1,553.289,50.028Zm-4.771,1.716a3.343,3.343,0,0,0-.905,2.368c0,.338-.025.822-.025,1.45s0,1.087.025,1.45a3.241,3.241,0,0,0,.905,2.368,3.507,3.507,0,0,0,4.453,0,3.342,3.342,0,0,0,.905-2.368c.024-.677.024-1.16.024-1.45,0-.266,0-.749-.024-1.45a3.241,3.241,0,0,0-.905-2.368,3.507,3.507,0,0,0-4.453,0Z" transform="translate(-372.276 -27.035)"/>
    <path id="path-10" data-name="path" class="cls-1" d="M606.385,62.041a3.042,3.042,0,0,1-.318-.387l-5.628-8.361v8.434a.388.388,0,0,1-.147.314.433.433,0,0,1-.318.145h-.709a.4.4,0,0,1-.318-.145.423.423,0,0,1-.147-.314V50.659a.388.388,0,0,1,.147-.314.433.433,0,0,1,.318-.145h.612a.6.6,0,0,1,.391.145,1.81,1.81,0,0,1,.318.387l5.628,8.361V50.659a.388.388,0,0,1,.147-.314.433.433,0,0,1,.318-.145h.71a.4.4,0,0,1,.318.145.423.423,0,0,1,.147.314V61.727a.388.388,0,0,1-.147.314.433.433,0,0,1-.318.145h-.612A.774.774,0,0,1,606.385,62.041Z" transform="translate(-412.233 -27.642)"/>
    <path id="path-11" data-name="path" class="cls-1" d="M648.718,59.38l-.905,2.272a.635.635,0,0,1-.685.435h-.636a.4.4,0,0,1-.269-.121.386.386,0,0,1-.122-.266.635.635,0,0,1,.073-.242l4.257-10.8a.777.777,0,0,1,.783-.556h1.052a.805.805,0,0,1,.783.556l4.233,10.8a.635.635,0,0,1,.073.242.386.386,0,0,1-.122.266.4.4,0,0,1-.269.121h-.636a.673.673,0,0,1-.685-.435l-.905-2.272Zm5.407-1.522-2.4-6.114-2.4,6.114Z" transform="translate(-447.96 -27.566)"/>
    <path id="path-12" data-name="path" class="cls-1" d="M710.43,60.76a.423.423,0,0,1,.147.314V61.7a.388.388,0,0,1-.147.314.434.434,0,0,1-.318.145h-7.047a.4.4,0,0,1-.318-.145.423.423,0,0,1-.147-.314V50.659a.388.388,0,0,1,.147-.314.433.433,0,0,1,.318-.145h.71a.4.4,0,0,1,.318.145.423.423,0,0,1,.147.314v9.98h5.872A.469.469,0,0,1,710.43,60.76Z" transform="translate(-490.635 -27.642)"/>
    <path id="path-13" data-name="path" class="cls-1" d="M747.539,60.64h5.823a.4.4,0,0,1,.318.145.423.423,0,0,1,.147.314v.628a.388.388,0,0,1-.147.314.433.433,0,0,1-.318.145h-7a.4.4,0,0,1-.318-.145.423.423,0,0,1-.147-.314V50.659a.388.388,0,0,1,.147-.314.433.433,0,0,1,.318-.145h6.875a.4.4,0,0,1,.318.145.423.423,0,0,1,.147.314v.628a.388.388,0,0,1-.147.314.433.433,0,0,1-.318.145h-5.677v3.625h5.31a.4.4,0,0,1,.318.145.423.423,0,0,1,.147.314v.628a.388.388,0,0,1-.147.314.433.433,0,0,1-.318.145h-5.31V60.64Z" transform="translate(-523.341 -27.642)"/>
    <path id="path-14" data-name="path" class="cls-1" d="M273.908,144.5a.423.423,0,0,1,.147.314v1.812a.388.388,0,0,1-.147.314.433.433,0,0,1-.318.145h-8.025a.4.4,0,0,1-.318-.145.423.423,0,0,1-.147-.314V135.559a.388.388,0,0,1,.147-.314.433.433,0,0,1,.318-.145h2.276a.4.4,0,0,1,.318.145.423.423,0,0,1,.147.314v8.772h5.285A.514.514,0,0,1,273.908,144.5Z" transform="translate(-160.181 -92.025)"/>
    <path id="path-15" data-name="path" class="cls-1" d="M316.946,135.028a4.375,4.375,0,0,1,1.835,1.667,4.876,4.876,0,0,1,.71,2.344c.024.314.024.822.024,1.547,0,.7,0,1.208-.024,1.5a5.068,5.068,0,0,1-.71,2.344,4.525,4.525,0,0,1-1.835,1.667,6.136,6.136,0,0,1-2.838.628,6.065,6.065,0,0,1-2.838-.628,4.375,4.375,0,0,1-1.835-1.667,4.876,4.876,0,0,1-.71-2.344c-.024-.628-.024-1.112-.024-1.5s0-.894.024-1.547a5.069,5.069,0,0,1,.71-2.344,4.525,4.525,0,0,1,1.835-1.667,6.135,6.135,0,0,1,2.838-.628A6.534,6.534,0,0,1,316.946,135.028Zm-1.272,2.658a2.572,2.572,0,0,0-3.132,0,2.221,2.221,0,0,0-.636,1.45c-.024.387-.049.846-.049,1.426,0,.556.024,1.039.049,1.45a2.221,2.221,0,0,0,.636,1.45,2.572,2.572,0,0,0,3.132,0,2.346,2.346,0,0,0,.636-1.45c.024-.411.049-.894.049-1.45,0-.58-.024-1.039-.049-1.426A2.346,2.346,0,0,0,315.673,137.687Z" transform="translate(-193.114 -91.494)"/>
    <path id="path-16" data-name="path" class="cls-1" d="M366.468,143.614a2.133,2.133,0,0,0,1.615.556,2.369,2.369,0,0,0,1.517-.387,2.032,2.032,0,0,0,.661-.967,1.082,1.082,0,0,1,.22-.387.545.545,0,0,1,.392-.1h2.275a.4.4,0,0,1,.269.121.386.386,0,0,1,.122.266,3.612,3.612,0,0,1-.734,2.127,4.745,4.745,0,0,1-1.957,1.522,6.349,6.349,0,0,1-2.716.556,6.1,6.1,0,0,1-2.814-.628,4.6,4.6,0,0,1-1.86-1.667,4.82,4.82,0,0,1-.734-2.344c-.024-.556-.024-.991-.024-1.353,0-.411,0-.991.024-1.692a4.588,4.588,0,0,1,2.569-4.011,6.1,6.1,0,0,1,2.814-.628,6.562,6.562,0,0,1,2.716.556,5.179,5.179,0,0,1,1.957,1.522,3.4,3.4,0,0,1,.734,2.127.386.386,0,0,1-.122.266.4.4,0,0,1-.269.121h-2.276a.544.544,0,0,1-.391-.1,1.08,1.08,0,0,1-.22-.387,2.032,2.032,0,0,0-.661-.967,2.323,2.323,0,0,0-1.517-.387,2.133,2.133,0,0,0-1.615.556,2.31,2.31,0,0,0-.587,1.45c-.024.387-.024.87-.024,1.45,0,.556,0,1.039.024,1.45A2.467,2.467,0,0,0,366.468,143.614Z" transform="translate(-233.901 -91.646)"/>
    <path id="path-17" data-name="path" class="cls-1" d="M424.214,146.458a.726.726,0,0,1,.073.266.386.386,0,0,1-.122.266.4.4,0,0,1-.269.121h-2.178a.879.879,0,0,1-.465-.121,1.137,1.137,0,0,1-.22-.29l-.489-1.426h-4.6l-.489,1.426a.432.432,0,0,1-.22.29.879.879,0,0,1-.465.121h-2.178a.4.4,0,0,1-.269-.121.386.386,0,0,1-.122-.266.869.869,0,0,1,.073-.266l3.768-10.778a.931.931,0,0,1,.269-.411.814.814,0,0,1,.514-.169h2.814a.733.733,0,0,1,.514.169.813.813,0,0,1,.269.411Zm-4.575-3.867-1.395-4.108-1.395,4.108Z" transform="translate(-271.289 -92.025)"/>
    <path id="path-18" data-name="path" class="cls-1" d="M472.105,135.245a.423.423,0,0,1,.147.314v1.812a.388.388,0,0,1-.147.314.549.549,0,0,1-.318.145h-3.058V146.6a.388.388,0,0,1-.147.314.433.433,0,0,1-.318.145h-2.276a.4.4,0,0,1-.318-.145.423.423,0,0,1-.147-.314v-8.772h-3.058a.4.4,0,0,1-.318-.145.423.423,0,0,1-.147-.314v-1.812a.388.388,0,0,1,.147-.314.433.433,0,0,1,.318-.145h9.322A.762.762,0,0,1,472.105,135.245Z" transform="translate(-308.905 -92.025)"/>
    <path id="path-19" data-name="path" class="cls-1" d="M513.547,147.041a.423.423,0,0,1-.147-.314V135.659a.388.388,0,0,1,.147-.314.433.433,0,0,1,.318-.145h2.276a.4.4,0,0,1,.318.145.423.423,0,0,1,.147.314v11.068a.388.388,0,0,1-.147.314.433.433,0,0,1-.318.145h-2.276A.433.433,0,0,1,513.547,147.041Z" transform="translate(-347.728 -92.101)"/>
    <path id="path-20" data-name="path" class="cls-1" d="M542.805,144.355h5.481a.4.4,0,0,1,.318.145.423.423,0,0,1,.147.314v1.812a.388.388,0,0,1-.147.314.433.433,0,0,1-.318.145h-8.221a.4.4,0,0,1-.318-.145.423.423,0,0,1-.147-.314V135.559a.388.388,0,0,1,.147-.314.433.433,0,0,1,.318-.145h8.074a.4.4,0,0,1,.318.145.423.423,0,0,1,.147.314v1.812a.388.388,0,0,1-.147.314.433.433,0,0,1-.318.145h-5.334v1.861h4.967a.4.4,0,0,1,.318.145.537.537,0,0,1,.147.314v1.812a.388.388,0,0,1-.147.314.433.433,0,0,1-.318.145h-4.967Z" transform="translate(-367.518 -92.025)"/>
    <path id="path-21" data-name="path" class="cls-1" d="M613.828,138.125a.342.342,0,0,1-.245.121h-2.276a1.554,1.554,0,0,1-.391-.048,1.889,1.889,0,0,1-.318-.217c-.024-.024-.1-.1-.22-.242a2.035,2.035,0,0,0-.587-.362,2.826,2.826,0,0,0-.954-.145,3.5,3.5,0,0,0-1.223.193.674.674,0,0,0-.465.677.6.6,0,0,0,.294.532,3.79,3.79,0,0,0,.905.362c.416.121,1.126.266,2.153.459a6.143,6.143,0,0,1,2.887,1.232,3.386,3.386,0,0,1,.245,4.374,4.6,4.6,0,0,1-1.909,1.3,7.618,7.618,0,0,1-2.765.459,7.053,7.053,0,0,1-2.716-.507,5.137,5.137,0,0,1-1.908-1.329,2.807,2.807,0,0,1-.734-1.692.386.386,0,0,1,.122-.266.342.342,0,0,1,.245-.121h2.276a.973.973,0,0,1,.661.242c.024.024.122.145.269.29a1.66,1.66,0,0,0,.685.435,2.946,2.946,0,0,0,1.077.193c1.443,0,2.153-.314,2.153-.918a.557.557,0,0,0-.294-.483,3.276,3.276,0,0,0-.856-.338c-.367-.1-.954-.217-1.762-.387l-.783-.145a4.811,4.811,0,0,1-2.594-1.257,3.242,3.242,0,0,1-.832-2.344,3.016,3.016,0,0,1,.612-1.837,4.38,4.38,0,0,1,1.713-1.353,6.162,6.162,0,0,1,2.569-.507,6.033,6.033,0,0,1,2.569.532,4.8,4.8,0,0,1,1.835,1.3,2.674,2.674,0,0,1,.71,1.547A.645.645,0,0,1,613.828,138.125Z" transform="translate(-415.858 -91.57)"/>
    <path id="path-22" data-name="path" class="cls-1" d="M657.647,147.041a.423.423,0,0,1-.147-.314V135.659a.387.387,0,0,1,.147-.314.433.433,0,0,1,.318-.145h2.275a.4.4,0,0,1,.318.145.423.423,0,0,1,.147.314v11.068a.388.388,0,0,1-.147.314.433.433,0,0,1-.318.145h-2.275A.433.433,0,0,1,657.647,147.041Z" transform="translate(-456.57 -92.101)"/>
    <path id="path-23" data-name="path" class="cls-1" d="M690.305,135.245a.423.423,0,0,1,.147.314v1.812a.388.388,0,0,1-.147.314.549.549,0,0,1-.318.145h-3.058V146.6a.388.388,0,0,1-.147.314.433.433,0,0,1-.318.145h-2.276a.4.4,0,0,1-.318-.145.423.423,0,0,1-.147-.314v-8.772h-3.058a.4.4,0,0,1-.318-.145.423.423,0,0,1-.147-.314v-1.812a.388.388,0,0,1,.147-.314.433.433,0,0,1,.318-.145h9.322A.761.761,0,0,1,690.305,135.245Z" transform="translate(-473.716 -92.025)"/>
    <path id="path-24" data-name="path" class="cls-1" d="M734.905,144.355h5.481a.4.4,0,0,1,.318.145.423.423,0,0,1,.147.314v1.812a.388.388,0,0,1-.147.314.433.433,0,0,1-.318.145h-8.221a.4.4,0,0,1-.318-.145.423.423,0,0,1-.147-.314V135.559a.388.388,0,0,1,.147-.314.433.433,0,0,1,.318-.145h8.074a.4.4,0,0,1,.318.145.423.423,0,0,1,.147.314v1.812a.388.388,0,0,1-.147.314.433.433,0,0,1-.318.145h-5.334v1.861h4.942a.4.4,0,0,1,.318.145.537.537,0,0,1,.147.314v1.812a.388.388,0,0,1-.147.314.433.433,0,0,1-.318.145h-4.967v1.933Z" transform="translate(-512.615 -92.025)"/>
  </g>
</svg>
