<?xml version="1.0" encoding="utf-8"?>
<!-- Generated by IcoMoon.io -->
<!DOCTYPE svg PUBLIC "-//W3C//DTD SVG 1.1//EN" "http://www.w3.org/Graphics/SVG/1.1/DTD/svg11.dtd">
<svg version="1.1" xmlns="http://www.w3.org/2000/svg" xmlns:xlink="http://www.w3.org/1999/xlink" width="1024" height="1024" viewBox="0 0 1024 1024">
<g id="icomoon-ignore">
</g>
<path fill="#ffffff" d="M204.8 494.912c0.642-1.331 1.017-2.894 1.017-4.544 0-5.89-4.775-10.665-10.665-10.665-4.239 0-7.901 2.474-9.62 6.056-8.271 17.243-25.529 28.894-45.508 28.894s-37.236-11.651-45.349-28.528c-1.998-3.549-5.447-5.7-9.399-5.7-5.885 0-10.656 4.771-10.656 10.656 0 1.39 0.266 2.717 0.75 3.934 11.704 24.41 36.287 41.017 64.748 41.017 28.505 0 53.12-16.657 64.641-40.769zM269.408 619.792c-5.885 0-10.656 4.771-10.656 10.656 0 0.032 0 0.070 0 0.108 0 65.55-53.138 118.688-118.688 118.688s-118.688-53.138-118.688-118.688c0-31.262 12.086-59.701 31.841-80.899 9.799 15.154 19.201 27.979 29.204 40.296-8.903 10.612-13.82 24.949-13.82 40.433 0 39.535 32.049 71.584 71.584 71.584 19.734 0 37.603-7.985 50.552-20.901 12.908-13.072 20.9-31.028 20.958-50.851 0.001-0.068 0.002-0.136 0.002-0.203 0-5.978-4.683-10.862-10.581-11.183l-0.029-0.001c-5.947 0.298-10.656 5.193-10.656 11.187 0 0.005 0 0.009 0 0.014s0 0.009 0 0.014c0 27.8-22.536 50.336-50.336 50.336-13.832 0-26.361-5.579-35.459-14.61-9.075-9.072-14.689-21.61-14.689-35.46 0-8.893 2.315-17.244 6.375-24.486 10.798 12.733 22.942 25.549 36.478 38.525 1.911 1.844 4.515 2.979 7.384 2.979s5.473-1.136 7.387-2.982c136.493-130.957 133.149-239.869 132.637-248.781-1.192-76.413-63.416-137.899-140-137.899s-138.808 61.486-139.999 137.787c-0.369 6.256-2.049 59.84 41.599 135.392l-0.528 0.496c-25.442 25.355-41.184 60.429-41.184 99.18 0 77.329 62.687 140.016 140.016 140.016s140.016-62.687 140.016-140.016c0-0.044 0-0.087 0-0.131-0.027-5.858-4.788-10.601-10.656-10.601 0 0 0 0 0 0zM34.464 464.848c-8.097-20.158-12.874-43.519-13.056-67.974q0-0.474 0-0.858c0-65.55 53.138-118.688 118.688-118.688s118.688 53.138 118.688 118.688c0 0.24 0 0.512 0 0.752-0.18 24.546-4.962 47.924-13.526 69.384-24.126 60.3-59.989 112.668-104.971 155.554-45.717-42.64-81.667-95.094-104.826-153.98z"></path>
<path fill="#ffffff" d="M583.648 449.984c-5.219-8.667-12.615-15.55-21.444-20.007-9.151-4.536-19.577-7.109-30.604-7.109-0.456 0-0.91 0.004-1.364 0.013l-49.020-0.001c-3.184 0.036-5.756 2.608-5.792 5.789v138.435c0.036 3.184 2.608 5.756 5.789 5.792h50.355c0.402 0.009 0.877 0.014 1.352 0.014 10.829 0 21.056-2.576 30.102-7.149 8.567-4.449 15.791-11.329 20.702-19.726 5.165-8.984 8.134-19.465 8.134-30.639 0-0.198-0.001-0.396-0.003-0.594q0.208-6.37 0.208-16.898t-0.208-16.928c0.002-0.175 0.003-0.381 0.003-0.587 0-11.203-3.050-21.693-8.364-30.686zM571.44 513.728c0.003 0.206 0.005 0.449 0.005 0.693 0 10.666-3.764 20.453-10.036 28.106-6.942 6.943-16.628 11.287-27.328 11.287-1.257 0-2.5-0.060-3.726-0.177l-34.564 0.012v-111.488h33.6c1.046-0.097 2.262-0.152 3.491-0.152 10.894 0 20.778 4.329 28.023 11.361 6.512 7.485 10.488 17.346 10.488 28.135 0 0.163-0.001 0.325-0.003 0.488q0.208 6.375 0.208 15.831t-0.16 15.92zM882.144 553.6h-72.64v-124.928c-0.036-3.184-2.608-5.756-5.789-5.792h-8.787c-3.184 0.036-5.756 2.608-5.792 5.789v138.435c0.036 3.184 2.608 5.756 5.789 5.792h87.219c3.184-0.036 5.756-2.608 5.792-5.789v-7.715c-0.036-3.184-2.608-5.756-5.789-5.792zM737.712 422.88h-8.784c-3.184 0.036-5.756 2.608-5.792 5.789v105.427l-69.648-104.784c-1.115-1.796-2.39-3.346-3.844-4.708-1.214-1.076-2.803-1.726-4.545-1.726-0.066 0-0.132 0.001-0.197 0.003h-7.462c-3.184 0.036-5.756 2.608-5.792 5.789v138.435c0.036 3.184 2.608 5.756 5.789 5.792h8.787c3.184-0.036 5.756-2.608 5.792-5.789v-105.443l69.584 104.736c1.113 1.797 2.388 3.347 3.843 4.708 1.212 1.076 2.8 1.727 4.539 1.727 0.068 0 0.136-0.001 0.203-0.003h7.494c3.184-0.036 5.756-2.608 5.792-5.789v-138.371c-0.036-3.184-2.608-5.756-5.789-5.792zM1013.808 505.92c-9.701-7.525-21.358-13.027-34.066-15.65q-18.542-4.798-27.438-8.094c-5.179-1.745-9.618-4.482-13.292-8.011-2.723-2.927-4.401-6.88-4.401-11.225 0-0.229 0.005-0.457 0.014-0.684-0.008-0.162-0.013-0.39-0.013-0.62 0-6.679 3.531-12.533 8.827-15.798 5.908-3.695 12.989-5.858 20.575-5.858 0.445 0 0.888 0.007 1.329 0.022 0.479-0.031 1.115-0.048 1.755-0.048 7.701 0 14.838 2.412 20.697 6.523 4.754 3.378 8.742 7.744 11.668 12.8 0.802 1.663 1.738 2.906 2.877 3.929 0.975 0.622 2.149 0.986 3.409 0.986 0.161 0 0.321-0.006 0.479-0.018l8.763 0.001c0.001 0 0.003 0 0.005 0 1.331 0 2.538-0.531 3.42-1.393 0.803-0.695 1.308-1.718 1.308-2.858 0-0.165-0.011-0.328-0.031-0.488-0.761-6.472-3.304-12.257-7.119-16.971-4.917-6.477-11.234-11.729-18.51-15.337-8.742-4.125-18.633-6.454-29.067-6.454-9.983 0-19.468 2.131-28.025 5.963-6.778 3.249-12.669 8.452-16.827 14.88-3.734 5.942-5.891 12.97-5.891 20.503 0 0.083 0 0.166 0.001 0.248-0.010 0.304-0.016 0.677-0.016 1.050 0 9.286 3.503 17.754 9.261 24.154 8.003 7.676 18.214 13.171 29.59 15.44q19.453 4.991 29.309 8.319c5.959 1.847 11.131 4.629 15.631 8.217 3.379 2.703 5.585 6.94 5.585 11.692 0 0.043 0 0.086-0.001 0.129-0.118 7.604-4.422 14.183-10.707 17.54-7.23 4.312-15.817 6.83-24.993 6.83-0.555 0-1.109-0.009-1.66-0.028-0.609 0.042-1.415 0.065-2.226 0.065-8.321 0-16.080-2.408-22.617-6.565-5.192-3.417-9.457-8.2-12.264-13.836-0.687-1.721-1.643-2.986-2.858-3.935-1.038-0.622-2.267-0.981-3.579-0.981-0.104 0-0.208 0.002-0.311 0.007l-8.801-0.001c-2.589 0.044-4.676 2.131-4.72 4.716 0.649 7.18 3.57 13.573 8.027 18.563 5.478 6.512 12.362 11.713 20.193 15.157 8.604 3.933 18.252 6.145 28.417 6.145 0.305 0 0.609-0.002 0.913-0.006 0.403 0.010 0.932 0.015 1.462 0.015 10.343 0 20.208-2.051 29.208-5.769 7.719-3.138 14.564-8.429 19.663-15.122 4.557-6.224 7.241-13.887 7.241-22.177 0-0.203-0.002-0.406-0.005-0.609 0.026-0.457 0.041-1.028 0.041-1.602 0-9.348-3.918-17.781-10.202-23.746z"></path>
</svg>
