<svg xmlns="http://www.w3.org/2000/svg" viewBox="0 0 421.481 87.3">
  <defs>
    <style>
      .cls-1 {
        fill: #fff;
      }
    </style>
  </defs>
  <title>logo-gooves-white</title>
  <g id="Layer_2" data-name="Layer 2">
    <g id="Layer_1-2" data-name="Layer 1">
      <path class="cls-1" d="M117.974,23.364a28.433,28.433,0,0,0-19.221,6.791Q89.313,38.328,89.314,55.3q0,15.48,7.913,23.709t20.746,8.229a30,30,0,0,0,14.761-3.74,25.054,25.054,0,0,0,10.3-10.5q3.539-6.76,3.539-18.559,0-14.559-8-22.818T117.974,23.364Zm12.833,49.491a17.053,17.053,0,0,1-25.724.028Q99.96,67.045,99.961,55.3t5.122-17.553a17.077,17.077,0,0,1,25.7.029q5.149,5.842,5.15,17.178Q135.929,66.986,130.807,72.855ZM42.3,52.771H67.1v15.71a36.566,36.566,0,0,1-10.474,5.957,37.453,37.453,0,0,1-14.157,2.791A35,35,0,0,1,26.7,73.546,24.857,24.857,0,0,1,15.395,62.267q-3.885-7.6-3.885-18.876a44.154,44.154,0,0,1,3.223-16.977,29.239,29.239,0,0,1,5.323-8.345,24.7,24.7,0,0,1,9.006-6.128A34.214,34.214,0,0,1,42.3,9.61a29.557,29.557,0,0,1,11.625,2.216,19.363,19.363,0,0,1,8.057,5.9A31.2,31.2,0,0,1,66.7,27.853L76.77,25.091a36.667,36.667,0,0,0-6.388-13.812,27.453,27.453,0,0,0-11.6-8.259A44.146,44.146,0,0,0,42.24.058,46.447,46.447,0,0,0,19.97,5.236,34.258,34.258,0,0,0,5.15,21.091,52.218,52.218,0,0,0,0,44.081a48.469,48.469,0,0,0,5.18,22.5A35.18,35.18,0,0,0,20.517,81.977,47.892,47.892,0,0,0,43.1,87.3a50.377,50.377,0,0,0,17.955-3.309,63.107,63.107,0,0,0,16.977-9.87V42.815L42.3,42.873Zm376.709,6.272a15.571,15.571,0,0,0-6.819-5.438,127.487,127.487,0,0,0-15.337-4.8q-7.6-2.073-9.149-2.647a9.115,9.115,0,0,1-3.971-2.763,5.711,5.711,0,0,1-1.267-3.625,6.87,6.87,0,0,1,3.05-5.524q3.05-2.36,10.187-2.36,6.042,0,9.352,2.647a11.083,11.083,0,0,1,4,7.366l10.129-1.381a21.94,21.94,0,0,0-3.568-9.467,17.188,17.188,0,0,0-8.027-5.611,35.384,35.384,0,0,0-12.632-2.071A31.352,31.352,0,0,0,386,24.6a21.346,21.346,0,0,0-6.589,3.021,16.754,16.754,0,0,0-5.093,5.783,15.742,15.742,0,0,0-1.871,7.567A15.078,15.078,0,0,0,381.4,54.987q4.4,2.1,15.8,4.978,8.459,2.13,10.589,3.511A6.292,6.292,0,0,1,410.835,69a8.687,8.687,0,0,1-3.453,6.819q-3.453,2.906-10.589,2.906-7.078,0-11.02-3.28t-4.806-9.438l-10.243,1.611q1.726,9.727,7.97,14.675t18.156,4.949a31.732,31.732,0,0,0,12.891-2.5,19.523,19.523,0,0,0,8.719-7.078,17.39,17.39,0,0,0,3.021-9.755A15.183,15.183,0,0,0,419.007,59.044Zm-84.595-35.68q-12.662,0-20.6,8.517t-7.941,23.94q0,14.9,7.855,23.163t21.264,8.258q10.645,0,17.494-5.179a26.118,26.118,0,0,0,9.381-14.56l-10.7-1.324q-2.36,6.561-6.388,9.553a15.846,15.846,0,0,1-9.726,2.993,16.957,16.957,0,0,1-12.776-5.353q-5.123-5.351-5.7-15.423h45.577q.057-1.84.058-2.762,0-15.135-7.769-23.479T334.412,23.364ZM317.147,49.434q.517-8,5.381-12.775a16.453,16.453,0,0,1,12-4.777,15.882,15.882,0,0,1,12.834,5.985q3.221,3.857,3.913,11.567ZM218.106,5.582A40.4,40.4,0,0,0,197.044,0Q179.2,0,167.925,11.884T156.646,44.772a47.615,47.615,0,0,0,4.834,21.063,37.024,37.024,0,0,0,14.215,15.71A39.885,39.885,0,0,0,196.986,87.3a41.92,41.92,0,0,0,20.487-5.208,35.361,35.361,0,0,0,14.675-15.336,49.711,49.711,0,0,0,5.18-22.962,50.562,50.562,0,0,0-4.921-22.646A36.467,36.467,0,0,0,218.106,5.582Zm-.432,63.3q-8.143,8.862-20.746,8.862a26.971,26.971,0,0,1-20.573-8.776q-8.2-8.774-8.2-24.026,0-19.047,8.546-27.191A28.549,28.549,0,0,1,197.1,9.61,27.621,27.621,0,0,1,212.15,13.84a26.767,26.767,0,0,1,10.187,11.913,43.228,43.228,0,0,1,3.481,17.983Q225.818,60.022,217.675,68.885Zm58.269-6.849q-2.476,6.791-3.855,11.625-1.784-6.388-3.913-12.315l-13.121-36.6H244.119l23.25,61.116h9.668l23.134-61.116H289.524Z"/>
    </g>
  </g>
</svg>
