<svg xmlns="http://www.w3.org/2000/svg" viewBox="0 0 639.059 240.054">
  <defs>
    <style>
      .cls-1 {
        fill: #ff713e;
      }

      .cls-2 {
        fill: #3c3c3b;
      }
    </style>
  </defs>
  <title>logo-dnls-france</title>
  <g id="Layer_2" data-name="Layer 2">
    <g id="Layer_1-2" data-name="Layer 1">
      <g>
        <path class="cls-1" d="M125.754,169.77a4.975,4.975,0,0,0-4.975,4.975,55.385,55.385,0,1,1-95.973-37.674A222.521,222.521,0,0,0,38.138,155.43a33.4,33.4,0,1,0,60.656,19.542A4.938,4.938,0,0,0,93.848,170h-.029a4.948,4.948,0,0,0-4.975,4.915,23.45,23.45,0,1,1-43.983-11.479c5.1,5.824,10.766,11.78,17.085,17.842a4.974,4.974,0,0,0,6.888,0c63.7-61.116,62.141-111.94,61.9-116.1a65.34,65.34,0,0,0-130.679,0c-.169,2.869-.958,27.876,19.382,63.133-.08.079-.166.155-.245.234a65.34,65.34,0,1,0,111.542,46.2A4.975,4.975,0,0,0,125.754,169.77ZM16.086,97.465C9.254,78.094,9.98,65.811,9.987,65.708q.014-.184.014-.369a55.389,55.389,0,1,1,110.778,0c0,.11,0,.24.013.35s.734,12.4-6.1,31.775c-10.738,30.446-32.072,56.153-49.3,73.27C35.673,141.25,22.184,114.754,16.086,97.465ZM95.6,111.492a4.975,4.975,0,1,0-9-4.239,23.466,23.466,0,0,1-42.45.036,4.975,4.975,0,0,0-9,4.255,33.417,33.417,0,0,0,60.447-.051Z"/>
        <path class="cls-2" d="M303.942,159.025a10.854,10.854,0,0,0,2.733-3.3,11.435,11.435,0,0,0,1.243-5.716,15.764,15.764,0,0,0-1.669-7.207,13.041,13.041,0,0,0-5.432-5.431,19.778,19.778,0,0,0-9.8-2.13H268.157a1.941,1.941,0,0,0-1.917,1.917v45.866a1.94,1.94,0,0,0,1.917,1.917h24.354q8.448,0,12.425-4.4a15.8,15.8,0,0,0,3.976-11.005,14.91,14.91,0,0,0-1.136-6.141A10.623,10.623,0,0,0,303.942,159.025Zm-24.565-12.78h11a4.469,4.469,0,0,1,3.23,1.065,4.59,4.59,0,0,1,0,5.964,4.469,4.469,0,0,1-3.23,1.065h-11ZM294.5,172.729a4.756,4.756,0,0,1-3.407,1.207H279.376v-8.662h11.715a4.76,4.76,0,0,1,3.407,1.207,4.456,4.456,0,0,1,0,6.248ZM373.237,99.74h28.9a1.94,1.94,0,0,0,1.917-1.917V95.267a1.941,1.941,0,0,0-1.917-1.917H378.064V51.957a1.939,1.939,0,0,0-1.917-1.917h-2.91a1.939,1.939,0,0,0-1.917,1.917V97.823a1.938,1.938,0,0,0,1.917,1.917Zm-52.185,0h2.91a1.938,1.938,0,0,0,1.917-1.917V62.891L348.954,97.61a7.516,7.516,0,0,0,1.278,1.562,2.262,2.262,0,0,0,1.562.568h2.485a1.94,1.94,0,0,0,1.917-1.917V51.957a1.941,1.941,0,0,0-1.917-1.917h-2.911a1.941,1.941,0,0,0-1.917,1.917V86.889L326.376,52.17a7.554,7.554,0,0,0-1.277-1.562,2.272,2.272,0,0,0-1.562-.568h-2.484a1.939,1.939,0,0,0-1.917,1.917V97.823a1.938,1.938,0,0,0,1.917,1.917Zm-51.759,0h16.686a22.132,22.132,0,0,0,10.295-2.308,17.043,17.043,0,0,0,7.029-6.674A20.448,20.448,0,0,0,305.93,80.5q.07-2.13.071-5.609t-.071-5.609a20.01,20.01,0,0,0-2.7-10.259,17.361,17.361,0,0,0-7.206-6.674,22.975,22.975,0,0,0-10.473-2.308h-16.26a1.941,1.941,0,0,0-1.917,1.917V97.823a1.94,1.94,0,0,0,1.917,1.917Zm4.828-43.31h11.147q7.1,0,10.437,3.728a14.237,14.237,0,0,1,3.479,9.479q.07,2.13.071,5.254t-.071,5.254a14.705,14.705,0,0,1-3.3,9.514q-3.16,3.693-10.26,3.692h-11.5Zm203.77,78.81h-9.3a1.941,1.941,0,0,0-1.917,1.917v45.866a1.94,1.94,0,0,0,1.917,1.917h9.3a1.94,1.94,0,0,0,1.917-1.917V137.157a1.941,1.941,0,0,0-1.917-1.917Zm109.409,0H578a1.941,1.941,0,0,0-1.917,1.917V165.2a9.612,9.612,0,0,1-2.165,6.709,9.49,9.49,0,0,1-12.567,0,9.607,9.607,0,0,1-2.165-6.709V137.157a1.941,1.941,0,0,0-1.917-1.917h-9.3a1.941,1.941,0,0,0-1.917,1.917v28.329a21.26,21.26,0,0,0,2.663,10.934,17.116,17.116,0,0,0,7.525,6.887,28.715,28.715,0,0,0,22.721,0,17.347,17.347,0,0,0,7.562-6.887,21.05,21.05,0,0,0,2.7-10.934V137.157a1.939,1.939,0,0,0-1.917-1.917Zm51.19,38.908a1.844,1.844,0,0,0-1.349-.568H614.706v-7.952h20.306a1.94,1.94,0,0,0,1.917-1.917v-7.526a1.94,1.94,0,0,0-1.917-1.917H614.706V146.6h21.867a1.939,1.939,0,0,0,1.917-1.917v-7.526a1.939,1.939,0,0,0-1.917-1.917H603.487a1.941,1.941,0,0,0-1.917,1.917v45.866a1.94,1.94,0,0,0,1.917,1.917h33.654a1.94,1.94,0,0,0,1.917-1.917V175.5A1.844,1.844,0,0,0,638.49,174.148ZM530.074,179.26a19.627,19.627,0,0,0,5.254-12.851q.142-1.917.143-6.248,0-4.4-.143-6.39a20.514,20.514,0,0,0-2.946-9.763,18.81,18.81,0,0,0-7.562-6.922,27.8,27.8,0,0,0-23.288,0,18.823,18.823,0,0,0-7.562,6.922,20.514,20.514,0,0,0-2.946,9.763q-.144,3.977-.142,6.39t.142,6.248a20.508,20.508,0,0,0,2.946,9.762,18.816,18.816,0,0,0,7.562,6.922,24.862,24.862,0,0,0,11.645,2.556,30.452,30.452,0,0,0,6.318-.71l1.988,2.982a4.6,4.6,0,0,0,1.172,1.171,3.155,3.155,0,0,0,1.811.462h10.011a1.432,1.432,0,0,0,.994-.391,1.25,1.25,0,0,0,.426-.958v-.213a1.642,1.642,0,0,0-.213-.639Zm-7.881-13.206a9.424,9.424,0,0,1-2.592,6,10.347,10.347,0,0,1-12.851,0,9.419,9.419,0,0,1-2.592-6q-.212-2.555-.213-6.035,0-3.549.213-5.893a9.424,9.424,0,0,1,2.592-6,10.349,10.349,0,0,1,12.851,0,9.429,9.429,0,0,1,2.592,6q.214,2.343.213,5.893Q522.406,163.5,522.194,166.054Zm-166.92,7.526H332.838v-7.952h20.306a1.94,1.94,0,0,0,1.917-1.917v-7.526a1.94,1.94,0,0,0-1.917-1.917H332.838V146.6h21.867a1.939,1.939,0,0,0,1.917-1.917v-7.526a1.939,1.939,0,0,0-1.917-1.917H321.619a1.941,1.941,0,0,0-1.917,1.917v45.866a1.94,1.94,0,0,0,1.917,1.917h33.654a1.94,1.94,0,0,0,1.917-1.917V175.5a1.94,1.94,0,0,0-1.917-1.917Zm98.548-18.46H436.64a1.94,1.94,0,0,0-1.917,1.917v7.526a1.94,1.94,0,0,0,1.917,1.917H442.6q0,4.047-2.449,5.928a10.383,10.383,0,0,1-6.5,1.882q-4.4,0-6.531-2.308a9.541,9.541,0,0,1-2.414-5.929q-.214-2.058-.213-6.461a49.188,49.188,0,0,1,.213-5.467q.921-8.235,8.945-8.236a10.53,10.53,0,0,1,4.864.923,9.824,9.824,0,0,1,3.017,2.485,14.505,14.505,0,0,0,1.385,1.456,2.144,2.144,0,0,0,1.456.461h9.442a1.622,1.622,0,0,0,1.137-.461,1.253,1.253,0,0,0,.426-1.1,12.78,12.78,0,0,0-2.946-6.887,20.7,20.7,0,0,0-7.6-5.893,25.465,25.465,0,0,0-11.183-2.343,24.472,24.472,0,0,0-11.537,2.592,19.268,19.268,0,0,0-7.633,6.958,19.611,19.611,0,0,0-2.911,9.691q-.142,4.4-.142,7.029,0,2.2.142,5.609a20.167,20.167,0,0,0,2.982,9.691,19.321,19.321,0,0,0,7.6,6.958,24.257,24.257,0,0,0,11.5,2.591,25.889,25.889,0,0,0,11.254-2.378,19.006,19.006,0,0,0,7.916-6.816,18.4,18.4,0,0,0,2.911-10.331v-9.088a1.938,1.938,0,0,0-1.917-1.917Zm-50.766,18.46H381.4V137.157a1.941,1.941,0,0,0-1.917-1.917h-9.3a1.941,1.941,0,0,0-1.917,1.917v45.866a1.94,1.94,0,0,0,1.917,1.917h32.873a1.938,1.938,0,0,0,1.917-1.917V175.5a1.938,1.938,0,0,0-1.917-1.917ZM420.45,98.462a22.718,22.718,0,0,0,9.585,1.988A25.358,25.358,0,0,0,440.047,98.6a15.641,15.641,0,0,0,6.709-5.112,12.448,12.448,0,0,0,2.379-7.526,10.844,10.844,0,0,0-3.373-8.414q-3.372-3.089-11.466-5.218-5.965-1.562-8.911-2.663a11.628,11.628,0,0,1-4.4-2.627,5.475,5.475,0,0,1-1.456-3.941,6.147,6.147,0,0,1,2.946-5.467,12.938,12.938,0,0,1,7.207-1.917,11.955,11.955,0,0,1,7.419,2.13,13.438,13.438,0,0,1,3.941,4.331,3.855,3.855,0,0,0,.923,1.243,2.119,2.119,0,0,0,1.277.319h2.911a1.618,1.618,0,0,0,1.136-.461,1.251,1.251,0,0,0,.427-1.1,10.934,10.934,0,0,0-2.344-5.609,17.327,17.327,0,0,0-6.247-5.147,22.744,22.744,0,0,0-18.674-.178,13.727,13.727,0,0,0-5.751,5.041,12.8,12.8,0,0,0-1.917,6.816,11.966,11.966,0,0,0,3.054,8.343q3.051,3.373,9.939,5.147,6.319,1.634,9.585,2.733a15.643,15.643,0,0,1,5.147,2.7,4.975,4.975,0,0,1,1.882,3.94q0,3.621-3.586,5.857a16.255,16.255,0,0,1-8.769,2.236q-5.183,0-8.2-2.13a11.733,11.733,0,0,1-4.153-4.686A2.885,2.885,0,0,0,416.759,86a2.325,2.325,0,0,0-1.278-.32H412.57a1.575,1.575,0,0,0-1.562,1.562,10.631,10.631,0,0,0,2.627,6.142A18.382,18.382,0,0,0,420.45,98.462Z"/>
      </g>
    </g>
  </g>
</svg>
