<svg xmlns="http://www.w3.org/2000/svg" viewBox="0 0 777.363 240.054">
  <defs>
    <style>
      .cls-1 {
        fill: #fff;
      }
    </style>
  </defs>
  <title>logo-dnls-white</title>
  <g id="Layer_2" data-name="Layer 2">
    <g id="Layer_1-2" data-name="Layer 1">
      <path class="cls-1" d="M61.946,181.278a4.974,4.974,0,0,0,6.888,0c63.7-61.116,62.141-111.94,61.9-116.1a65.34,65.34,0,0,0-130.679,0c-.169,2.869-.958,27.876,19.382,63.133-.08.079-.166.155-.245.234a65.34,65.34,0,1,0,111.542,46.2,4.975,4.975,0,1,0-9.95,0,55.385,55.385,0,1,1-95.972-37.674A222.547,222.547,0,0,0,38.138,155.43a33.4,33.4,0,1,0,60.656,19.542A4.938,4.938,0,0,0,93.848,170h-.029a4.948,4.948,0,0,0-4.975,4.915,23.45,23.45,0,1,1-43.983-11.479C49.961,169.259,55.627,175.216,61.946,181.278ZM16.086,97.465C9.254,78.094,9.98,65.811,9.987,65.708q.014-.184.014-.369a55.389,55.389,0,1,1,110.778,0c0,.11,0,.24.013.35s.734,12.4-6.1,31.775c-10.738,30.446-32.072,56.153-49.3,73.27C35.673,141.25,22.184,114.754,16.086,97.465ZM95.6,111.492a4.975,4.975,0,1,0-9-4.239,23.466,23.466,0,0,1-42.45.036,4.975,4.975,0,0,0-9,4.255,33.417,33.417,0,0,0,60.447-.051ZM719.43,135.24H681.3a1.941,1.941,0,0,0-1.917,1.917v7.526A1.941,1.941,0,0,0,681.3,146.6h12.5v36.423a1.94,1.94,0,0,0,1.917,1.917h9.3a1.938,1.938,0,0,0,1.917-1.917V146.6h12.5a1.939,1.939,0,0,0,1.917-1.917v-7.526a1.939,1.939,0,0,0-1.917-1.917Zm-51.261,0h-9.3a1.941,1.941,0,0,0-1.917,1.917v45.866a1.94,1.94,0,0,0,1.917,1.917h9.3a1.94,1.94,0,0,0,1.917-1.917V137.157a1.941,1.941,0,0,0-1.917-1.917Zm98.05,38.34H743.783v-7.952h20.306a1.94,1.94,0,0,0,1.917-1.917v-7.526a1.94,1.94,0,0,0-1.917-1.917H743.783V146.6H765.65a1.939,1.939,0,0,0,1.917-1.917v-7.526a1.939,1.939,0,0,0-1.917-1.917H732.564a1.941,1.941,0,0,0-1.917,1.917v45.866a1.94,1.94,0,0,0,1.917,1.917h33.654a1.94,1.94,0,0,0,1.917-1.917V175.5a1.94,1.94,0,0,0-1.917-1.917Zm-465.188,0H279.376V137.157a1.941,1.941,0,0,0-1.918-1.917h-9.3a1.941,1.941,0,0,0-1.917,1.917v45.866a1.94,1.94,0,0,0,1.917,1.917H301.03a1.938,1.938,0,0,0,1.917-1.917V175.5a1.938,1.938,0,0,0-1.917-1.917ZM684.567,97.965a2.635,2.635,0,0,0,2.769,1.775h2.627a1.576,1.576,0,0,0,1.563-1.562,2.708,2.708,0,0,0-.284-.994l-17.324-44.8a3.254,3.254,0,0,0-3.2-2.343h-4.26a3.251,3.251,0,0,0-3.194,2.343l-17.4,44.8a2.689,2.689,0,0,0-.284.994,1.576,1.576,0,0,0,1.563,1.562h2.627a2.635,2.635,0,0,0,2.769-1.775l3.692-9.443h24.637ZM658.724,82.132l9.868-25.347,9.8,25.347ZM321.052,99.74h28.684a1.94,1.94,0,0,0,1.917-1.917V95.267a1.941,1.941,0,0,0-1.917-1.917H325.879V77.8h21.727a1.94,1.94,0,0,0,1.917-1.917V73.328a1.94,1.94,0,0,0-1.917-1.917H325.879V56.43h23.288a1.938,1.938,0,0,0,1.917-1.917V51.957a1.939,1.939,0,0,0-1.917-1.917H321.052a1.939,1.939,0,0,0-1.917,1.917V97.823a1.938,1.938,0,0,0,1.917,1.917Zm382.614,0h28.9a1.94,1.94,0,0,0,1.917-1.917V95.267a1.941,1.941,0,0,0-1.917-1.917H708.493V51.957a1.939,1.939,0,0,0-1.917-1.917h-2.91a1.939,1.939,0,0,0-1.917,1.917V97.823a1.938,1.938,0,0,0,1.917,1.917Zm73.129-5.822a1.844,1.844,0,0,0-1.349-.568H751.59V77.8h21.727a1.94,1.94,0,0,0,1.917-1.917V73.328a1.94,1.94,0,0,0-1.917-1.917H751.59V56.43h23.288a1.938,1.938,0,0,0,1.917-1.917V51.957a1.939,1.939,0,0,0-1.917-1.917H746.763a1.939,1.939,0,0,0-1.917,1.917V97.823a1.938,1.938,0,0,0,1.917,1.917h28.684a1.94,1.94,0,0,0,1.917-1.917V95.267A1.844,1.844,0,0,0,776.795,93.919ZM433.088,99.74h2.627a2.635,2.635,0,0,0,2.769-1.775l3.692-9.443h24.637l3.692,9.443a2.635,2.635,0,0,0,2.769,1.775H475.9a1.576,1.576,0,0,0,1.563-1.562,2.708,2.708,0,0,0-.284-.994l-17.324-44.8a3.254,3.254,0,0,0-3.2-2.343H452.4a3.251,3.251,0,0,0-3.194,2.343l-17.4,44.8a2.689,2.689,0,0,0-.284.994,1.576,1.576,0,0,0,1.563,1.562Zm21.441-42.955,9.8,25.347H444.661Zm-151.3,2.237a17.361,17.361,0,0,0-7.206-6.674,22.975,22.975,0,0,0-10.473-2.308h-16.26a1.941,1.941,0,0,0-1.917,1.917V97.823a1.94,1.94,0,0,0,1.917,1.917h16.686a22.132,22.132,0,0,0,10.295-2.308,17.043,17.043,0,0,0,7.029-6.674A20.448,20.448,0,0,0,305.93,80.5q.07-2.13.071-5.609t-.071-5.609A20.01,20.01,0,0,0,303.231,59.022Zm-4.047,21.122a14.705,14.705,0,0,1-3.3,9.514q-3.16,3.693-10.26,3.692h-11.5V56.43h11.147q7.1,0,10.437,3.728a14.237,14.237,0,0,1,3.479,9.479q.07,2.13.071,5.254T299.185,80.144Zm87.044,19.6h2.91a1.938,1.938,0,0,0,1.917-1.917V62.891L414.131,97.61a7.516,7.516,0,0,0,1.278,1.562,2.262,2.262,0,0,0,1.562.568h2.485a1.94,1.94,0,0,0,1.917-1.917V51.957a1.941,1.941,0,0,0-1.917-1.917h-2.911a1.941,1.941,0,0,0-1.917,1.917V86.889L391.553,52.17a7.554,7.554,0,0,0-1.277-1.562,2.272,2.272,0,0,0-1.562-.568h-2.484a1.939,1.939,0,0,0-1.917,1.917V97.823a1.938,1.938,0,0,0,1.917,1.917Zm245.162,55.38q-6.248-1.278-8.769-1.917a12.273,12.273,0,0,1-3.728-1.456,2.561,2.561,0,0,1-1.207-2.237,2.853,2.853,0,0,1,1.953-2.8,13.1,13.1,0,0,1,5-.816,10.8,10.8,0,0,1,3.87.639,6.714,6.714,0,0,1,2.449,1.456q.781.817.923.958a4.979,4.979,0,0,0,1.278.888,3.964,3.964,0,0,0,1.562.249h9.3a1.426,1.426,0,0,0,1.029-.461,1.506,1.506,0,0,0,.461-1.1,10.874,10.874,0,0,0-2.875-6.39,20.827,20.827,0,0,0-7.49-5.432,27.071,27.071,0,0,0-21.052-.071,17.125,17.125,0,0,0-7.064,5.609,12.951,12.951,0,0,0-2.485,7.632q0,6.108,3.408,9.763t10.649,5.219l3.2.639q4.969,1.065,7.242,1.633a11.7,11.7,0,0,1,3.515,1.384,2.384,2.384,0,0,1,1.242,2.023q0,3.764-8.8,3.763a11.08,11.08,0,0,1-4.437-.816,7.981,7.981,0,0,1-2.8-1.846q-.923-1.028-1.136-1.243a3.967,3.967,0,0,0-2.7-.994h-9.3a1.422,1.422,0,0,0-1.029.461,1.5,1.5,0,0,0-.462,1.1,11.637,11.637,0,0,0,2.982,7.029,20.372,20.372,0,0,0,7.81,5.538A27.839,27.839,0,0,0,625,185.65a32.034,32.034,0,0,0,11.324-1.881,17.662,17.662,0,0,0,7.811-5.4,12.765,12.765,0,0,0,2.8-8.2q0-6.46-3.763-9.94T631.391,155.121ZM582.648,58.809a17.165,17.165,0,0,0-6.71-6.922,22.586,22.586,0,0,0-20.874,0,17.144,17.144,0,0,0-6.709,6.922,21.823,21.823,0,0,0-2.45,9.763q-.072,2.13-.07,6.319t.07,6.319a22.525,22.525,0,0,0,2.521,9.762,17.221,17.221,0,0,0,6.674,6.922,22.442,22.442,0,0,0,20.8,0,17.221,17.221,0,0,0,6.674-6.922A22.538,22.538,0,0,0,585.1,81.21q.141-4.26.142-6.319t-.142-6.319A21.861,21.861,0,0,0,582.648,58.809Zm-4.3,22.045q-.212,6.533-3.692,9.869a14.237,14.237,0,0,1-18.317,0q-3.48-3.336-3.692-9.869-.072-2.13-.071-5.964t.071-5.964q.214-6.532,3.692-9.869a14.237,14.237,0,0,1,18.317,0q3.479,3.338,3.692,9.869.142,4.26.142,5.964T578.353,80.854Zm-53.46,54.386h-9.3a1.941,1.941,0,0,0-1.917,1.917v45.866a1.94,1.94,0,0,0,1.917,1.917h9.3a1.94,1.94,0,0,0,1.917-1.917V137.157a1.941,1.941,0,0,0-1.917-1.917Zm-9.658-80.727V51.957a1.939,1.939,0,0,0-1.917-1.917h-33.3a1.941,1.941,0,0,0-1.917,1.917v2.556a1.94,1.94,0,0,0,1.917,1.917H493.3V97.823a1.938,1.938,0,0,0,1.917,1.917h2.911a1.94,1.94,0,0,0,1.917-1.917V56.43h13.276a1.938,1.938,0,0,0,1.917-1.917Zm60,119.067H552.8v-7.952H573.1a1.94,1.94,0,0,0,1.917-1.917v-7.526a1.94,1.94,0,0,0-1.917-1.917H552.8V146.6h21.867a1.939,1.939,0,0,0,1.917-1.917v-7.526a1.939,1.939,0,0,0-1.917-1.917H541.577a1.941,1.941,0,0,0-1.917,1.917v45.866a1.94,1.94,0,0,0,1.917,1.917h33.654a1.94,1.94,0,0,0,1.917-1.917V175.5a1.94,1.94,0,0,0-1.917-1.917ZM530.711,50.04H527.8a1.939,1.939,0,0,0-1.917,1.917V97.823A1.938,1.938,0,0,0,527.8,99.74h2.91a1.938,1.938,0,0,0,1.917-1.917V51.957a1.939,1.939,0,0,0-1.917-1.917Zm-28.255,85.2H464.329a1.941,1.941,0,0,0-1.917,1.917v7.526a1.941,1.941,0,0,0,1.917,1.917h12.5v36.423a1.94,1.94,0,0,0,1.917,1.917h9.3a1.938,1.938,0,0,0,1.917-1.917V146.6h12.5a1.939,1.939,0,0,0,1.917-1.917v-7.526a1.939,1.939,0,0,0-1.917-1.917Zm-151.477,8.769a18.81,18.81,0,0,0-7.562-6.922,27.8,27.8,0,0,0-23.288,0,18.823,18.823,0,0,0-7.562,6.922,20.514,20.514,0,0,0-2.946,9.763q-.144,3.977-.142,6.39t.142,6.248a20.508,20.508,0,0,0,2.946,9.762,18.816,18.816,0,0,0,7.562,6.922,27.8,27.8,0,0,0,23.288,0,18.8,18.8,0,0,0,7.562-6.922,20.508,20.508,0,0,0,2.946-9.762q.142-1.917.143-6.248,0-4.4-.143-6.39A20.514,20.514,0,0,0,350.979,144.009Zm-10.188,22.045a9.424,9.424,0,0,1-2.592,6,10.347,10.347,0,0,1-12.851,0,9.419,9.419,0,0,1-2.592-6q-.212-2.555-.213-6.035,0-3.549.213-5.893a9.424,9.424,0,0,1,2.592-6,10.349,10.349,0,0,1,12.851,0,9.429,9.429,0,0,1,2.592,6q.214,2.343.213,5.893Q341,163.5,340.791,166.054Zm38.161-17.892q2.093-2.272,6.567-2.272,4.26,0,6.178,1.633a8.8,8.8,0,0,1,2.7,3.976,4.568,4.568,0,0,0,.853,1.633,2.2,2.2,0,0,0,1.562.426h9.3A1.576,1.576,0,0,0,407.672,152a14.9,14.9,0,0,0-3.018-8.769,20.279,20.279,0,0,0-7.987-6.354,26.13,26.13,0,0,0-11.147-2.343,24.472,24.472,0,0,0-11.537,2.592,19.268,19.268,0,0,0-7.633,6.958,19.611,19.611,0,0,0-2.911,9.691q-.142,4.4-.142,7.029,0,2.2.142,5.609a20.167,20.167,0,0,0,2.982,9.691,19.321,19.321,0,0,0,7.6,6.958,24.257,24.257,0,0,0,11.5,2.591,26.129,26.129,0,0,0,11.147-2.343,20.275,20.275,0,0,0,7.987-6.354,14.892,14.892,0,0,0,3.018-8.769,1.576,1.576,0,0,0-1.562-1.562h-9.3a2.2,2.2,0,0,0-1.562.426,4.581,4.581,0,0,0-.853,1.633,8.8,8.8,0,0,1-2.7,3.976q-1.917,1.635-6.178,1.633-4.472,0-6.567-2.272a9.584,9.584,0,0,1-2.378-5.964q-.144-2.555-.143-5.964,0-3.549.143-5.964A9.587,9.587,0,0,1,378.952,148.163Zm67.557-10.579a3.906,3.906,0,0,0-1.136-1.668,3.043,3.043,0,0,0-2.059-.675h-11.5a3.042,3.042,0,0,0-2.06.675,3.889,3.889,0,0,0-1.136,1.668l-15.478,44.73a3.2,3.2,0,0,0-.284,1.065,1.575,1.575,0,0,0,1.562,1.562h8.946a2.97,2.97,0,0,0,1.882-.533,2.488,2.488,0,0,0,.887-1.242l1.988-5.893h18.886l1.988,5.893a2.484,2.484,0,0,0,.888,1.242,2.964,2.964,0,0,0,1.882.533h8.945a1.576,1.576,0,0,0,1.563-1.562,3.254,3.254,0,0,0-.284-1.065Zm-14.7,28.684,5.751-17.04,5.751,17.04Zm172.739-67.1a1.844,1.844,0,0,0,.567-1.349V62.891L628.194,97.61a7.516,7.516,0,0,0,1.278,1.562,2.262,2.262,0,0,0,1.562.568h2.485a1.94,1.94,0,0,0,1.917-1.917V51.957a1.941,1.941,0,0,0-1.917-1.917h-2.911a1.941,1.941,0,0,0-1.917,1.917V86.889L605.616,52.17a7.554,7.554,0,0,0-1.277-1.562,2.272,2.272,0,0,0-1.562-.568h-2.484a1.939,1.939,0,0,0-1.917,1.917V97.823a1.938,1.938,0,0,0,1.917,1.917h2.91A1.844,1.844,0,0,0,604.552,99.172Z"/>
    </g>
  </g>
</svg>
