<svg xmlns="http://www.w3.org/2000/svg" viewBox="0 0 64 21.844">
  <defs>
    <style>
      .cls-1 {
        fill: #ff713e;
      }

      .cls-2 {
        fill: #3c3c3b;
      }
    </style>
  </defs>
  <title>logo-top-venues-london</title>
  <g id="Layer_2" data-name="Layer 2">
    <g id="Icons">
      <g id="top-venues-london">
        <path class="cls-1" d="M8.7,10.146A.453.453,0,1,0,7.88,9.76a2.135,2.135,0,0,1-3.863,0,.453.453,0,1,0-.819.387,3.041,3.041,0,0,0,5.5,0Zm2.744,5.3a.453.453,0,0,0-.453.453,5.04,5.04,0,1,1-8.733-3.428,20.251,20.251,0,0,0,1.213,1.671,3.04,3.04,0,1,0,5.52,1.778.449.449,0,0,0-.45-.452h0a.45.45,0,0,0-.453.447,2.134,2.134,0,1,1-4-1.045c.464.53.98,1.072,1.555,1.624a.453.453,0,0,0,.627,0c5.8-5.561,5.655-10.186,5.632-10.565A5.946,5.946,0,0,0,0,5.931a11.032,11.032,0,0,0,1.764,5.745l-.022.021A5.946,5.946,0,1,0,11.9,15.9.453.453,0,0,0,11.443,15.449Zm-9.98-6.58a8.113,8.113,0,0,1-.555-2.89V5.946a5.04,5.04,0,0,1,10.081,0v.032a8.109,8.109,0,0,1-.555,2.891A18.587,18.587,0,0,1,5.95,15.536,18.012,18.012,0,0,1,1.464,8.869Z"/>
        <path class="cls-2" d="M31.938,13.1a1.712,1.712,0,0,0-.688-.63,2.529,2.529,0,0,0-2.119,0,1.713,1.713,0,0,0-.688.63,1.867,1.867,0,0,0-.268.888q-.013.362-.013.582t.013.569a1.866,1.866,0,0,0,.268.888,1.713,1.713,0,0,0,.688.63,2.53,2.53,0,0,0,2.119,0,1.711,1.711,0,0,0,.688-.63,1.866,1.866,0,0,0,.268-.888q.013-.174.013-.569t-.013-.582A1.867,1.867,0,0,0,31.938,13.1Zm-.927,2.006a.857.857,0,0,1-.236.546.941.941,0,0,1-1.169,0,.857.857,0,0,1-.236-.546q-.019-.233-.019-.549t.019-.536a.858.858,0,0,1,.236-.546.942.942,0,0,1,1.169,0,.858.858,0,0,1,.236.546q.019.213.019.536T31.011,15.111Zm8.748-6.293a.33.33,0,0,0,.336.258h.258a.342.342,0,0,0,.216-.068.378.378,0,0,0,.126-.191l1.4-4.057A.174.174,0,0,0,42.1,4.7a.143.143,0,0,0-.142-.142h-.239a.24.24,0,0,0-.252.162L40.224,8.43,38.977,4.715a.24.24,0,0,0-.252-.162h-.239a.143.143,0,0,0-.142.142.171.171,0,0,0,.013.065ZM25.306,8.9a.176.176,0,0,0,.174.174h.265A.176.176,0,0,0,25.92,8.9V5.135h1.208a.176.176,0,0,0,.174-.174V4.728a.176.176,0,0,0-.174-.174H24.1a.177.177,0,0,0-.174.174v.233a.177.177,0,0,0,.174.174h1.208ZM27.393,15.8h-1.97V12.481a.177.177,0,0,0-.175-.174H24.4a.177.177,0,0,0-.174.174v4.174a.176.176,0,0,0,.174.174h2.991a.176.176,0,0,0,.174-.174V15.97a.176.176,0,0,0-.174-.174Zm1.437-6.887a2.043,2.043,0,0,0,1.893,0,1.567,1.567,0,0,0,.607-.63,2.051,2.051,0,0,0,.229-.888q.013-.388.013-.575T31.56,6.24a1.989,1.989,0,0,0-.223-.888,1.562,1.562,0,0,0-.611-.63,2.055,2.055,0,0,0-1.9,0,1.56,1.56,0,0,0-.611.63,1.986,1.986,0,0,0-.223.888q-.007.194-.006.575t.006.575a2.05,2.05,0,0,0,.229.888A1.567,1.567,0,0,0,28.831,8.908Zm-.223-2.636a1.248,1.248,0,0,1,.336-.9,1.3,1.3,0,0,1,1.667,0,1.248,1.248,0,0,1,.336.9q.013.388.013.543t-.013.543a1.248,1.248,0,0,1-.336.9,1.3,1.3,0,0,1-1.667,0,1.248,1.248,0,0,1-.336-.9q-.007-.194-.006-.543T28.608,6.272Zm14.7,2.8h2.61A.176.176,0,0,0,46.1,8.9V8.669a.177.177,0,0,0-.174-.174H43.752V7.08h1.977a.177.177,0,0,0,.174-.174V6.673a.177.177,0,0,0-.174-.174H43.752V5.135h2.119a.176.176,0,0,0,.174-.174V4.728a.176.176,0,0,0-.174-.174H43.313a.176.176,0,0,0-.174.174V8.9a.176.176,0,0,0,.174.174Zm8.321,3.23h-.846a.176.176,0,0,0-.174.174v2.184l-1.48-2.21a.28.28,0,0,0-.1-.1.291.291,0,0,0-.168-.049H48.2a.177.177,0,0,0-.174.174v4.174a.176.176,0,0,0,.174.174h.846a.176.176,0,0,0,.174-.174V14.471l1.48,2.21a.279.279,0,0,0,.1.1.291.291,0,0,0,.168.048h.672a.176.176,0,0,0,.174-.174V12.481a.177.177,0,0,0-.174-.174Zm7.9-3.812H57.365V7.08h1.977a.177.177,0,0,0,.174-.174V6.673a.177.177,0,0,0-.174-.174H57.365V5.135h2.119a.176.176,0,0,0,.174-.174V4.728a.176.176,0,0,0-.174-.174H56.925a.176.176,0,0,0-.174.174V8.9a.176.176,0,0,0,.174.174h2.61A.176.176,0,0,0,59.71,8.9V8.669a.177.177,0,0,0-.174-.174Zm-4.3-3.941h-.258a.177.177,0,0,0-.174.174V7.345a1.31,1.31,0,0,1-.3.934,1.093,1.093,0,0,1-.833.313,1.082,1.082,0,0,1-.83-.313,1.319,1.319,0,0,1-.294-.934V4.728a.176.176,0,0,0-.174-.174h-.265a.177.177,0,0,0-.174.174V7.312a1.982,1.982,0,0,0,.423,1.334,1.987,1.987,0,0,0,2.623,0,1.963,1.963,0,0,0,.43-1.334V4.728a.177.177,0,0,0-.174-.174Zm8.454,2.5a2.526,2.526,0,0,0-1.043-.475q-.543-.142-.811-.242a1.058,1.058,0,0,1-.4-.239.5.5,0,0,1-.132-.359.559.559,0,0,1,.268-.5,1.177,1.177,0,0,1,.656-.174,1.088,1.088,0,0,1,.675.194,1.222,1.222,0,0,1,.359.394.351.351,0,0,0,.084.113.193.193,0,0,0,.116.029h.265a.147.147,0,0,0,.1-.042.114.114,0,0,0,.039-.1,1,1,0,0,0-.213-.51,1.577,1.577,0,0,0-.568-.468,2.07,2.07,0,0,0-1.7-.016,1.249,1.249,0,0,0-.523.459,1.165,1.165,0,0,0-.174.62,1.089,1.089,0,0,0,.278.759,1.8,1.8,0,0,0,.9.468q.575.149.872.249a1.423,1.423,0,0,1,.468.246.453.453,0,0,1,.171.359.61.61,0,0,1-.326.533,1.479,1.479,0,0,1-.8.2,1.273,1.273,0,0,1-.746-.194,1.068,1.068,0,0,1-.378-.426.263.263,0,0,0-.084-.113.212.212,0,0,0-.116-.029h-.265a.143.143,0,0,0-.142.142.967.967,0,0,0,.239.559,1.673,1.673,0,0,0,.62.462,2.067,2.067,0,0,0,.872.181,2.308,2.308,0,0,0,.911-.168,1.424,1.424,0,0,0,.611-.465A1.133,1.133,0,0,0,64,7.823.987.987,0,0,0,63.693,7.057ZM50.058,9.025a.206.206,0,0,0,.142.052h.226A.176.176,0,0,0,50.6,8.9V4.728a.177.177,0,0,0-.174-.174h-.265a.177.177,0,0,0-.174.174V7.907l-2.1-3.159a.688.688,0,0,0-.116-.142.207.207,0,0,0-.142-.052H47.4a.176.176,0,0,0-.174.174V8.9a.176.176,0,0,0,.174.174h.265a.176.176,0,0,0,.174-.174V5.723l2.1,3.159A.686.686,0,0,0,50.058,9.025ZM33.382,8.9V7.319h1.189a1.928,1.928,0,0,0,.785-.155,1.278,1.278,0,0,0,.562-.472,1.36,1.36,0,0,0,.21-.769A1.222,1.222,0,0,0,35.685,4.9a1.745,1.745,0,0,0-1.114-.349H32.943a.176.176,0,0,0-.174.174V8.9a.176.176,0,0,0,.174.174h.265a.176.176,0,0,0,.174-.174Zm0-3.767h1.156q.976,0,.976.788a.738.738,0,0,1-.252.611,1.127,1.127,0,0,1-.724.2H33.382Zm8.448,8.041a1.782,1.782,0,0,0-.717-.64,2.291,2.291,0,0,0-1.043-.229H38.357a.177.177,0,0,0-.174.174v4.174a.176.176,0,0,0,.174.174H40.1a2.229,2.229,0,0,0,1.034-.229,1.759,1.759,0,0,0,.7-.636,1.858,1.858,0,0,0,.275-.937q.013-.349.013-.452t-.013-.465A1.829,1.829,0,0,0,41.83,13.176Zm-.914,1.877q-.032.743-.846.743h-.691V13.34h.659a.963.963,0,0,1,.636.187.739.739,0,0,1,.242.556q.013.349.013.478T40.916,15.053Zm-4.077-2.746h-.846a.176.176,0,0,0-.174.174v2.184l-1.48-2.21a.28.28,0,0,0-.1-.1.291.291,0,0,0-.168-.049H33.4a.177.177,0,0,0-.174.174v4.174a.176.176,0,0,0,.174.174h.846a.176.176,0,0,0,.174-.174V14.471l1.48,2.21a.279.279,0,0,0,.1.1.291.291,0,0,0,.168.048h.672a.176.176,0,0,0,.174-.174V12.481a.177.177,0,0,0-.174-.174Zm9.895.8a1.712,1.712,0,0,0-.688-.63,2.529,2.529,0,0,0-2.119,0,1.713,1.713,0,0,0-.688.63,1.867,1.867,0,0,0-.268.888q-.013.362-.013.582t.013.569a1.866,1.866,0,0,0,.268.888,1.713,1.713,0,0,0,.688.63,2.53,2.53,0,0,0,2.119,0,1.711,1.711,0,0,0,.688-.63A1.866,1.866,0,0,0,47,15.143q.013-.174.013-.569T47,13.993A1.867,1.867,0,0,0,46.734,13.1Zm-.927,2.006a.857.857,0,0,1-.236.546.941.941,0,0,1-1.169,0,.857.857,0,0,1-.236-.546q-.019-.233-.019-.549t.019-.536a.858.858,0,0,1,.236-.546.942.942,0,0,1,1.169,0,.858.858,0,0,1,.236.546q.019.213.019.536T45.806,15.111Z"/>
      </g>
    </g>
  </g>
</svg>
