<svg xmlns="http://www.w3.org/2000/svg" viewBox="0 0 477.867 240.056">
  <defs>
    <style>
      .cls-1 {
        fill: #fff;
      }
    </style>
  </defs>
  <title>logo-dnls-compact-white</title>
  <g id="Layer_2" data-name="Layer 2">
    <g id="Layer_1-2" data-name="Layer 1">
      <path class="cls-1" d="M95.6,111.493a4.975,4.975,0,1,0-9-4.239,23.466,23.466,0,0,1-42.45.036,4.975,4.975,0,0,0-9,4.255,33.417,33.417,0,0,0,60.447-.051ZM61.946,181.258a4.967,4.967,0,0,0,6.888.014c63.7-61.116,62.141-111.937,61.9-116.1a65.34,65.34,0,0,0-130.679,0c-.169,2.87-.958,27.876,19.382,63.133-.08.079-.166.156-.245.234a65.34,65.34,0,1,0,111.542,46.2,4.975,4.975,0,1,0-9.95,0,55.385,55.385,0,1,1-95.972-37.675,222.558,222.558,0,0,0,13.332,18.359,33.406,33.406,0,0,0,50.873,42.937,33.926,33.926,0,0,0,9.783-23.735,5.239,5.239,0,0,0-4.947-5.312h-.029a5.249,5.249,0,0,0-4.975,5.255A23.493,23.493,0,0,1,48.8,191.255a23.4,23.4,0,0,1-3.944-27.861C49.961,169.218,55.628,175.2,61.946,181.258ZM16.086,97.466C9.254,78.1,9.98,65.812,9.987,65.709q.014-.184.014-.369a55.389,55.389,0,0,1,110.778,0c0,.11,0,.24.013.35s.734,12.4-6.1,31.775c-10.738,30.446-32.072,56.153-49.3,73.27C35.673,141.252,22.184,114.755,16.086,97.466Zm395.582,41.411h-33.9v-58.3a2.731,2.731,0,0,0-2.7-2.7h-4.1a2.733,2.733,0,0,0-2.7,2.7v64.6a2.733,2.733,0,0,0,2.7,2.7h40.7a2.731,2.731,0,0,0,2.7-2.7v-3.6a2.731,2.731,0,0,0-2.7-2.7Zm61.449-22.25q-4.75-4.349-16.15-7.35-8.4-2.2-12.55-3.75a16.387,16.387,0,0,1-6.2-3.7,7.709,7.709,0,0,1-2.05-5.55,8.655,8.655,0,0,1,4.15-7.7,18.216,18.216,0,0,1,10.149-2.7q6.5,0,10.45,3a18.913,18.913,0,0,1,5.55,6.1,5.45,5.45,0,0,0,1.3,1.75,2.984,2.984,0,0,0,1.8.449h4.1a2.282,2.282,0,0,0,1.6-.649,1.763,1.763,0,0,0,.6-1.55q-.2-3.6-3.3-7.9a24.418,24.418,0,0,0-8.8-7.25,32.032,32.032,0,0,0-26.3-.25,19.322,19.322,0,0,0-8.1,7.1,18.021,18.021,0,0,0-2.7,9.6,16.857,16.857,0,0,0,4.3,11.75q4.3,4.75,14,7.25,8.9,2.3,13.5,3.85a22.014,22.014,0,0,1,7.25,3.8,7.009,7.009,0,0,1,2.65,5.551q0,5.1-5.05,8.25a22.9,22.9,0,0,1-12.351,3.149q-7.3,0-11.55-3a16.532,16.532,0,0,1-5.85-6.6,4.06,4.06,0,0,0-1.3-1.75,3.282,3.282,0,0,0-1.8-.45h-4.1a2.221,2.221,0,0,0-2.2,2.2,14.975,14.975,0,0,0,3.7,8.649,25.892,25.892,0,0,0,9.6,7.15,32,32,0,0,0,13.5,2.8,35.729,35.729,0,0,0,14.1-2.6,22.046,22.046,0,0,0,9.45-7.2,17.538,17.538,0,0,0,3.35-10.6Q477.867,120.978,473.117,116.627ZM344.269,77.877h-4.1a2.731,2.731,0,0,0-2.7,2.7v49.2l-32.5-48.9a10.68,10.68,0,0,0-1.8-2.2,3.2,3.2,0,0,0-2.2-.8h-3.5a2.733,2.733,0,0,0-2.7,2.7v64.6a2.733,2.733,0,0,0,2.7,2.7h4.1a2.731,2.731,0,0,0,2.7-2.7v-49.2l32.5,48.9a10.577,10.577,0,0,0,1.8,2.2,3.186,3.186,0,0,0,2.2.8h3.5a2.731,2.731,0,0,0,2.7-2.7v-64.6a2.731,2.731,0,0,0-2.7-2.7Zm-71.9,12.65a24.444,24.444,0,0,0-10.149-9.4,32.361,32.361,0,0,0-14.75-3.25h-22.9a2.73,2.73,0,0,0-2.7,2.7v64.6a2.73,2.73,0,0,0,2.7,2.7h23.5a31.184,31.184,0,0,0,14.5-3.25,24.007,24.007,0,0,0,9.9-9.4,28.809,28.809,0,0,0,3.7-14.45q.1-3,.1-7.9t-.1-7.9A28.187,28.187,0,0,0,272.37,90.528Zm-5.7,29.75q-.2,8.2-4.65,13.4t-14.45,5.2h-16.2v-52h15.7q10,0,14.7,5.25a20.055,20.055,0,0,1,4.9,13.351q.1,3,.1,7.4T266.671,120.278Z"/>
    </g>
  </g>
</svg>
