<svg xmlns="http://www.w3.org/2000/svg" viewBox="0 0 703.313 240.054">
  <defs>
    <style>
      .cls-1 {
        fill: #fff;
      }
    </style>
  </defs>
  <title>logo-top-venues-london-white</title>
  <g id="Layer_2" data-name="Layer 2">
    <g id="Layer_1-2" data-name="Layer 1">
      <path class="cls-1" d="M61.946,181.278a4.974,4.974,0,0,0,6.888,0c63.7-61.116,62.141-111.94,61.9-116.1a65.34,65.34,0,0,0-130.679,0c-.169,2.869-.958,27.876,19.382,63.133-.08.079-.166.155-.245.234a65.34,65.34,0,1,0,111.542,46.2,4.975,4.975,0,1,0-9.95,0,55.385,55.385,0,1,1-95.972-37.674A222.547,222.547,0,0,0,38.138,155.43a33.4,33.4,0,1,0,60.656,19.542A4.938,4.938,0,0,0,93.848,170h-.029a4.948,4.948,0,0,0-4.975,4.915,23.45,23.45,0,1,1-43.983-11.479C49.961,169.259,55.627,175.216,61.946,181.278ZM16.086,97.465C9.254,78.094,9.98,65.811,9.987,65.708q.014-.184.014-.369a55.389,55.389,0,1,1,110.778,0c0,.11,0,.24.013.35s.734,12.4-6.1,31.775c-10.738,30.446-32.072,56.153-49.3,73.27C35.673,141.25,22.184,114.754,16.086,97.465Zm300.741.43a22.446,22.446,0,0,0,20.8,0,17.225,17.225,0,0,0,6.674-6.923,22.536,22.536,0,0,0,2.521-9.762q.141-4.261.142-6.319t-.142-6.319a21.861,21.861,0,0,0-2.449-9.763,17.167,17.167,0,0,0-6.71-6.922,22.582,22.582,0,0,0-20.874,0,17.146,17.146,0,0,0-6.709,6.922,21.823,21.823,0,0,0-2.45,9.763q-.072,2.13-.07,6.319t.07,6.319a22.523,22.523,0,0,0,2.521,9.762A17.225,17.225,0,0,0,316.827,97.895Zm-2.449-28.968q.214-6.532,3.692-9.869a14.237,14.237,0,0,1,18.317,0q3.479,3.338,3.692,9.869.142,4.26.142,5.964t-.142,5.964q-.212,6.533-3.692,9.869a14.237,14.237,0,0,1-18.317,0q-3.48-3.337-3.692-9.869-.072-2.13-.071-5.964T314.378,68.927Zm161.6,30.813h28.684a1.939,1.939,0,0,0,1.917-1.917V95.268a1.941,1.941,0,0,0-1.917-1.917H480.8V77.8h21.727a1.941,1.941,0,0,0,1.917-1.917V73.328a1.941,1.941,0,0,0-1.917-1.917H480.8V56.431h23.288a1.939,1.939,0,0,0,1.917-1.917V51.957a1.939,1.939,0,0,0-1.917-1.917H475.974a1.939,1.939,0,0,0-1.917,1.917V97.823a1.938,1.938,0,0,0,1.917,1.917ZM95.6,111.492a4.975,4.975,0,1,0-9-4.239,23.466,23.466,0,0,1-42.45.036,4.975,4.975,0,0,0-9,4.255,33.417,33.417,0,0,0,60.447-.051ZM301.03,173.581H279.376V137.157a1.941,1.941,0,0,0-1.918-1.917h-9.3a1.941,1.941,0,0,0-1.917,1.917v45.866a1.939,1.939,0,0,0,1.917,1.917H301.03a1.938,1.938,0,0,0,1.917-1.917V175.5a1.938,1.938,0,0,0-1.917-1.917ZM278.1,97.823a1.938,1.938,0,0,0,1.917,1.917h2.911a1.939,1.939,0,0,0,1.917-1.917V56.431h13.276a1.939,1.939,0,0,0,1.917-1.917V51.957a1.939,1.939,0,0,0-1.917-1.917h-33.3a1.941,1.941,0,0,0-1.917,1.917v2.557a1.941,1.941,0,0,0,1.917,1.917H278.1ZM436.924,96.9a3.631,3.631,0,0,0,3.691,2.84h2.84A3.758,3.758,0,0,0,445.834,99a4.151,4.151,0,0,0,1.385-2.095l15.336-44.588a1.913,1.913,0,0,0,.142-.71,1.576,1.576,0,0,0-1.562-1.562h-2.627a2.638,2.638,0,0,0-2.77,1.775l-13.7,40.825-13.7-40.825a2.639,2.639,0,0,0-2.77-1.775h-2.627a1.576,1.576,0,0,0-1.562,1.563,1.875,1.875,0,0,0,.142.71Zm-32.092,38.34h-9.3a1.939,1.939,0,0,0-1.917,1.917v24l-16.26-24.281a3.081,3.081,0,0,0-1.064-1.1,3.2,3.2,0,0,0-1.846-.533H367.06a1.941,1.941,0,0,0-1.917,1.917v45.866a1.939,1.939,0,0,0,1.917,1.917h9.3a1.939,1.939,0,0,0,1.917-1.917v-24l16.259,24.282a3.064,3.064,0,0,0,1.064,1.1,3.2,3.2,0,0,0,1.847.532h7.384a1.939,1.939,0,0,0,1.917-1.917V137.157a1.941,1.941,0,0,0-1.917-1.917Zm249.421-41.89H630.4V77.8h21.727a1.941,1.941,0,0,0,1.917-1.917V73.328a1.941,1.941,0,0,0-1.917-1.917H630.4V56.431h23.288a1.939,1.939,0,0,0,1.917-1.917V51.957a1.939,1.939,0,0,0-1.917-1.917H625.569a1.939,1.939,0,0,0-1.917,1.917V97.823a1.938,1.938,0,0,0,1.917,1.917h28.684a1.939,1.939,0,0,0,1.917-1.917V95.268a1.941,1.941,0,0,0-1.917-1.917ZM607.037,50.04H604.2a1.941,1.941,0,0,0-1.917,1.917V80.713q0,6.816-3.266,10.259t-9.159,3.443q-5.895,0-9.124-3.443T577.5,80.713V51.957a1.939,1.939,0,0,0-1.917-1.917h-2.911a1.941,1.941,0,0,0-1.917,1.917v28.4q0,9.23,4.65,14.661t14.449,5.432q9.655,0,14.377-5.432t4.722-14.661v-28.4a1.941,1.941,0,0,0-1.917-1.917Zm92.9,27.513q-3.372-3.088-11.466-5.218-5.965-1.562-8.911-2.663a11.622,11.622,0,0,1-4.4-2.627,5.474,5.474,0,0,1-1.456-3.94,6.146,6.146,0,0,1,2.946-5.467,12.934,12.934,0,0,1,7.207-1.917,11.955,11.955,0,0,1,7.419,2.13,13.433,13.433,0,0,1,3.941,4.331,3.857,3.857,0,0,0,.923,1.242,2.119,2.119,0,0,0,1.277.319h2.911a1.617,1.617,0,0,0,1.136-.461,1.252,1.252,0,0,0,.427-1.1,10.937,10.937,0,0,0-2.344-5.609,17.332,17.332,0,0,0-6.247-5.147,22.744,22.744,0,0,0-18.674-.178,13.727,13.727,0,0,0-5.751,5.041,12.8,12.8,0,0,0-1.917,6.816,11.968,11.968,0,0,0,3.054,8.343q3.051,3.372,9.939,5.147,6.319,1.633,9.585,2.733a15.634,15.634,0,0,1,5.147,2.7,4.973,4.973,0,0,1,1.882,3.94q0,3.621-3.586,5.857a16.255,16.255,0,0,1-8.769,2.236q-5.183,0-8.2-2.13a11.734,11.734,0,0,1-4.153-4.687A2.885,2.885,0,0,0,670.937,86a2.329,2.329,0,0,0-1.278-.319h-2.911a1.574,1.574,0,0,0-1.562,1.562,10.628,10.628,0,0,0,2.627,6.142,18.383,18.383,0,0,0,6.815,5.077,22.718,22.718,0,0,0,9.585,1.987A25.358,25.358,0,0,0,694.226,98.6a15.645,15.645,0,0,0,6.709-5.112,12.446,12.446,0,0,0,2.379-7.525A10.846,10.846,0,0,0,699.94,77.553ZM567.42,135.24h-9.3a1.939,1.939,0,0,0-1.917,1.917v24l-16.26-24.281a3.081,3.081,0,0,0-1.064-1.1,3.2,3.2,0,0,0-1.846-.533h-7.385a1.941,1.941,0,0,0-1.917,1.917v45.866a1.939,1.939,0,0,0,1.917,1.917h9.3a1.939,1.939,0,0,0,1.917-1.917v-24l16.259,24.282a3.064,3.064,0,0,0,1.064,1.1,3.2,3.2,0,0,0,1.847.532h7.384a1.939,1.939,0,0,0,1.917-1.917V137.157a1.941,1.941,0,0,0-1.917-1.917Zm-216.44,8.769a18.812,18.812,0,0,0-7.562-6.922,27.794,27.794,0,0,0-23.288,0,18.825,18.825,0,0,0-7.562,6.922,20.514,20.514,0,0,0-2.946,9.763q-.144,3.977-.142,6.391t.142,6.248a20.506,20.506,0,0,0,2.946,9.762,18.82,18.82,0,0,0,7.562,6.923,27.8,27.8,0,0,0,23.288,0,18.808,18.808,0,0,0,7.562-6.923,20.506,20.506,0,0,0,2.946-9.762q.142-1.917.143-6.248,0-4.4-.143-6.391A20.514,20.514,0,0,0,350.979,144.009Zm-10.188,22.046a9.422,9.422,0,0,1-2.592,6,10.345,10.345,0,0,1-12.851,0,9.417,9.417,0,0,1-2.592-6q-.212-2.556-.213-6.035,0-3.549.213-5.893a9.424,9.424,0,0,1,2.592-6,10.349,10.349,0,0,1,12.851,0,9.429,9.429,0,0,1,2.592,6q.214,2.342.213,5.893Q341,163.5,340.791,166.055Zm26.055-68.231V80.429H379.91a21.185,21.185,0,0,0,8.626-1.7,14.045,14.045,0,0,0,6.178-5.184,14.947,14.947,0,0,0,2.308-8.448q0-7.384-4.864-11.219A19.177,19.177,0,0,0,379.91,50.04H362.019a1.939,1.939,0,0,0-1.917,1.917V97.823a1.938,1.938,0,0,0,1.917,1.917h2.91a1.938,1.938,0,0,0,1.917-1.917Zm0-41.393h12.709q10.721,0,10.722,8.662,0,4.472-2.77,6.709t-7.952,2.236H366.846ZM459.68,144.79a19.586,19.586,0,0,0-7.881-7.029,25.182,25.182,0,0,0-11.467-2.521H421.517a1.941,1.941,0,0,0-1.917,1.917v45.866a1.939,1.939,0,0,0,1.917,1.917h19.17a24.494,24.494,0,0,0,11.36-2.521,19.326,19.326,0,0,0,7.7-6.993,20.413,20.413,0,0,0,3.018-10.295q.142-3.835.143-4.97t-.143-5.112A20.1,20.1,0,0,0,459.68,144.79Zm-10.047,20.626q-.356,8.165-9.3,8.165h-7.6V146.6h7.241q4.544,0,6.994,2.06a8.118,8.118,0,0,1,2.662,6.105q.142,3.833.142,5.254Q449.774,161.3,449.633,165.416Zm63.935-21.407a18.812,18.812,0,0,0-7.562-6.922,27.794,27.794,0,0,0-23.288,0,18.825,18.825,0,0,0-7.562,6.922,20.514,20.514,0,0,0-2.946,9.763q-.144,3.977-.142,6.391t.142,6.248a20.506,20.506,0,0,0,2.946,9.762,18.82,18.82,0,0,0,7.562,6.923,27.8,27.8,0,0,0,23.288,0,18.808,18.808,0,0,0,7.562-6.923,20.506,20.506,0,0,0,2.946-9.762q.142-1.917.143-6.248,0-4.4-.143-6.391A20.514,20.514,0,0,0,513.567,144.009Zm-10.188,22.046a9.422,9.422,0,0,1-2.592,6,10.345,10.345,0,0,1-12.851,0,9.417,9.417,0,0,1-2.592-6q-.212-2.556-.213-6.035,0-3.549.213-5.893a9.424,9.424,0,0,1,2.592-6,10.349,10.349,0,0,1,12.851,0,9.429,9.429,0,0,1,2.592,6q.214,2.342.213,5.893Q503.592,163.5,503.379,166.055ZM550.1,99.173a2.264,2.264,0,0,0,1.562.567h2.485a1.939,1.939,0,0,0,1.917-1.917V51.957a1.941,1.941,0,0,0-1.917-1.917h-2.911a1.941,1.941,0,0,0-1.917,1.917V86.89L526.24,52.171a7.558,7.558,0,0,0-1.277-1.562,2.274,2.274,0,0,0-1.562-.568h-2.484A1.939,1.939,0,0,0,519,51.957V97.823a1.938,1.938,0,0,0,1.917,1.917h2.91a1.938,1.938,0,0,0,1.917-1.917V62.892L548.818,97.61A7.533,7.533,0,0,0,550.1,99.173Z"/>
    </g>
  </g>
</svg>
