<svg xmlns="http://www.w3.org/2000/svg" xmlns:xlink="http://www.w3.org/1999/xlink" preserveAspectRatio="xMidYMid" width="31.844" height="32" viewBox="0 0 31.844 32">
  <defs>
    <style>
      .cls-1 {
        fill: #55676e;
        fill-rule: evenodd;
      }
    </style>
  </defs>
  <path d="M11.939,4.000 C16.325,4.000 19.893,7.589 19.893,12.000 C19.893,13.661 19.383,15.260 18.418,16.624 L17.636,17.730 L16.536,18.517 C15.180,19.487 13.591,20.000 11.939,20.000 C7.553,20.000 3.985,16.411 3.985,12.000 C3.985,7.589 7.553,4.000 11.939,4.000 M11.939,0.000 C5.349,0.000 0.008,5.373 0.008,12.000 C0.008,18.627 5.349,24.000 11.939,24.000 C14.514,24.000 16.892,23.171 18.842,21.776 L28.424,31.413 C28.813,31.804 29.323,32.000 29.833,32.000 C30.342,32.000 30.852,31.804 31.241,31.413 C32.019,30.631 32.019,29.362 31.241,28.580 L21.659,18.943 C23.046,16.982 23.870,14.590 23.870,12.000 C23.870,5.373 18.528,0.000 11.939,0.000 L11.939,0.000 Z" class="cls-1"/>
</svg>
